<?xml version="1.0" encoding="UTF-8" standalone="no"?>
<!-- Created with Inkscape (http://www.inkscape.org/) -->

<svg
   version="1.1"
   id="svg2708"
   width="245.4109"
   height="227.40524"
   viewBox="0 0 245.4109 227.40524"
   sodipodi:docname="ds1.svg"
   inkscape:version="1.2.2 (732a01da63, 2022-12-09, custom)"
   xmlns:inkscape="http://www.inkscape.org/namespaces/inkscape"
   xmlns:sodipodi="http://sodipodi.sourceforge.net/DTD/sodipodi-0.dtd"
   xmlns="http://www.w3.org/2000/svg"
   xmlns:svg="http://www.w3.org/2000/svg">
  <defs
     id="defs2712" />
  <sodipodi:namedview
     id="namedview2710"
     pagecolor="#ffffff"
     bordercolor="#000000"
     borderopacity="0.25"
     inkscape:showpageshadow="2"
     inkscape:pageopacity="0.0"
     inkscape:pagecheckerboard="0"
     inkscape:deskcolor="#d1d1d1"
     showgrid="false"
     inkscape:zoom="3.4023669"
     inkscape:cx="123.73739"
     inkscape:cy="119.3287"
     inkscape:window-width="1920"
     inkscape:window-height="1031"
     inkscape:window-x="0"
     inkscape:window-y="25"
     inkscape:window-maximized="1"
     inkscape:current-layer="layer1" />
  <g
     inkscape:groupmode="layer"
     id="layer1"
     inkscape:label="Layer 1"
     transform="translate(-10.16275,-2.2634494)">
    <path
       style="fill:#000000;stroke-width:0.48"
       d="m 129.17496,229.29702 c -2.49019,-0.55585 -3.36201,-1.38849 -3.61967,-3.45702 -0.0329,-0.264 -0.62169,-2.316 -1.30845,-4.56 -1.5874,-5.18687 -3.5185,-12.43544 -4.21994,-15.84 -0.29916,-1.452 -0.9353,-3.828 -1.41364,-5.28 l -0.86973,-2.64 -2.35177,-0.29784 c -1.29347,-0.1638 -4.51176,-0.88177 -7.15176,-1.59547 -2.64,-0.71371 -6.42,-1.73691 -8.4,-2.27379 -1.98,-0.53688 -4.572,-1.14866 -5.76,-1.35951 -5.46227,-0.96948 -21.620818,-6.26558 -24.639979,-8.07596 C 68.60401,183.41613 65.544,181.7576 62.64,180.23182 55.151962,176.29754 51.262382,173.60587 45.137915,168.12 c -1.252609,-1.122 -2.514695,-2.04 -2.804634,-2.04 -0.458793,0 -1.705391,1.65531 -3.80153,5.04792 -0.323536,0.52364 -1.426959,2.57208 -2.45205,4.55208 -1.660386,3.2071 -2.041478,3.63087 -3.491752,3.88288 -0.895372,0.15559 -2.464328,0.64159 -3.486569,1.08 -2.158683,0.92581 -3.507137,1.01985 -3.759689,0.26219 -0.120765,-0.3623 -2.275969,-0.51489 -6.678298,-0.47283 -5.729778,0.0547 -6.623424,-0.045 -7.541691,-0.84138 -1.4488082,-1.25655 -1.3177097,-2.18759 0.817097,-5.80294 1.022339,-1.73135 2.01933,-3.6668 2.215537,-4.30099 0.196206,-0.63419 0.969815,-2.19285 1.719132,-3.46369 0.749316,-1.27085 2.120938,-3.88396 3.048047,-5.80693 0.927109,-1.92297 2.303456,-4.57631 3.058548,-5.89631 5.03176,-8.79618 5.961814,-10.82646 5.66822,-12.37355 -0.16141,-0.85055 -0.594336,-2.1228 -0.962059,-2.82722 -0.367722,-0.70442 -0.822947,-2.19442 -1.01161,-3.31111 -0.188664,-1.11669 -0.642632,-2.74741 -1.008819,-3.62381 -0.366187,-0.87641 -0.675202,-2.62642 -0.686699,-3.88889 -0.0115,-1.26248 -0.239429,-3.26742 -0.506514,-4.45542 -1.062792,-4.72732 -1.147752,-5.56743 -0.846488,-8.37034 1.293565,-12.03512 4.309489,-22.312378 8.741956,-29.78966 0.938982,-1.584 2.153837,-3.690288 2.699678,-4.680643 0.545841,-0.990351 2.54893,-3.431967 4.451309,-5.42581 l 3.45887,-3.625166 0.107882,-15.214191 c 0.118532,-16.716164 0.277472,-19.283153 1.353387,-21.858181 0.74407,-1.78081 2.354619,-2.632739 3.874523,-2.049497 1.404395,0.538917 2.457535,-0.58717 3.275503,-3.50238 0.819715,-2.921455 3.395193,-6.869774 5.625489,-8.624125 1.727367,-1.358745 3.561715,-1.70909 5.261693,-1.004936 1.372526,0.568518 1.533341,0.515098 2.750683,-0.913714 C 66.84612,15.70734 75.189384,10.789071 80.88,8.964624 86.201174,7.2586224 99.396672,4.9472597 110.16,3.8358521 c 10.69331,-1.1041778 33.60653,-1.9020513 41.28251,-1.4375207 17.46163,1.0567326 26.41373,2.7074176 37.32778,6.8829011 4.07631,1.5595105 6.62216,2.7188085 7.54971,3.4378945 0.396,0.307001 1.74175,0.935028 2.99054,1.395617 1.62473,0.59924 3.0924,1.734345 5.16,3.990764 1.58921,1.734332 2.88946,3.446093 2.88946,3.803912 0,1.10216 0.66708,0.721706 1.89468,-1.080577 2.13157,-3.129454 5.21559,-3.478574 7.81004,-0.884122 1.75139,1.751392 3.83837,6.699445 4.44355,10.535279 0.51949,3.292722 0.74504,3.617943 3.29159,4.74607 2.8246,1.251301 3.77922,2.200976 3.78312,3.763514 0.0116,4.65195 -0.68206,17.147899 -1.12109,20.195002 -0.81474,5.65476 -0.50695,6.650136 3.15609,10.206595 1.72811,1.67783 3.14202,3.235598 3.14202,3.461712 0,0.226113 1.51868,2.232715 3.37484,4.459113 6.09782,7.314092 11.51756,19.099839 13.19933,28.703194 0.56695,3.23745 0.61628,5.61306 0.25467,12.26426 -0.40867,7.5168 -0.5949,8.673 -2.09795,13.0248 -1.47908,4.28242 -2.97503,7.88138 -4.94415,11.89464 -0.85542,1.74345 -0.84884,3.84754 0.0206,6.5611 0.38061,1.188 1.65276,5.184 2.82701,8.88 5.70097,17.94411 6.05358,18.92028 7.86278,21.76724 1.50616,2.37009 1.5773,2.64987 0.92641,3.64325 -0.66651,1.01724 -1.12529,1.09258 -8.39667,1.37884 -7.6157,0.29982 -7.71917,0.29018 -10.47922,-0.97606 -1.53317,-0.70338 -3.52988,-1.40054 -4.43712,-1.54926 -1.43368,-0.23501 -1.75145,-0.55264 -2.42827,-2.4272 -0.4283,-1.18625 -1.14401,-2.99319 -1.59046,-4.01543 -0.44647,-1.02224 -0.81175,-2.05974 -0.81175,-2.30554 0,-0.24581 -1.00418,-1.98524 -2.23152,-3.8654 l -2.23152,-3.41848 -1.36172,1.52402 c -0.74894,0.83821 -1.50764,1.52402 -1.686,1.52402 -0.17836,0 -1.96341,1.25784 -3.96677,2.7952 -2.00336,1.53736 -4.66645,3.49034 -5.91798,4.33997 -3.86227,2.62197 -19.56485,10.21297 -25.56449,12.35848 -12.00136,4.29177 -17.60196,5.90687 -25.7682,7.43104 -3.11829,0.58201 -3.24216,0.66116 -4.41951,2.82435 -0.66621,1.22406 -1.35531,3.18528 -1.53132,4.35826 -0.17601,1.17298 -0.58715,2.7807 -0.91364,3.5727 -0.72834,1.76683 -2.3439,8.6316 -3.36521,14.29933 -0.96624,5.36209 -1.47543,6.44212 -3.31284,7.02679 -2.43082,0.77349 -12.69683,1.01766 -15.59432,0.3709 z M 134.88,210.53136 c 0,-14.15435 0.11261,-17.03186 0.67496,-17.24766 0.54657,-0.20974 0.63923,-1.47487 0.48714,-6.65135 -0.1033,-3.51579 -0.3162,-6.98635 -0.4731,-7.71235 -0.51614,-2.3882 -1.62411,-1.67201 -6.56676,4.24472 -2.31854,2.77547 -4.12073,4.27679 -4.58117,3.81635 -0.1723,-0.17229 -0.10352,-0.46352 0.15283,-0.64717 0.46034,-0.32978 1.40612,-1.70314 1.95441,-2.838 0.15521,-0.32125 -0.26707,-1.07725 -0.9384,-1.68 -1.48475,-1.33308 -1.83467,-2.91423 -0.69678,-3.14852 0.53966,-0.11111 1.11561,0.42217 1.7125,1.58562 l 0.89937,1.75305 1.4075,-1.65969 c 0.77413,-0.91284 2.01071,-2.4442 2.74796,-3.40303 1.23637,-1.60795 3.21954,-2.38613 3.21954,-1.26333 0,0.98674 0.9531,0.43461 1.24289,-0.72 0.49364,-1.96681 1.02463,-1.37497 1.38999,1.54927 0.45624,3.65157 0.34807,17.19956 -0.17384,21.77283 -0.23413,2.05166 -0.23423,8.3399 -2.2e-4,14.4 0.42689,11.05493 0.58267,12.97422 1.12423,13.85048 0.4674,0.75626 2.20704,0.61334 4.05711,-0.33332 1.72207,-0.88118 2.29212,-2.24198 3.36768,-8.03926 0.24489,-1.32 0.87119,-3.804 1.39177,-5.52 0.52058,-1.716 1.315,-4.848 1.76538,-6.96 0.45038,-2.112 1.33812,-5.4416 1.97276,-7.39912 1.24569,-3.84224 1.27645,-5.00506 0.17383,-6.5723 -0.79711,-1.13299 -5.0804,-6.0879 -7.72527,-8.93659 -0.95353,-1.02701 -2.03353,-2.44229 -2.4,-3.14506 -0.36647,-0.70277 -1.04431,-1.66233 -1.50631,-2.13235 -0.94341,-0.95978 -1.00491,-1.29113 -0.41303,-2.22521 0.34004,-0.53663 0.62982,-0.50809 1.65393,0.16294 0.68292,0.44747 1.37264,1.22625 1.53273,1.73063 0.16008,0.50438 0.61325,0.91706 1.00704,0.91706 0.39379,0 0.60538,0.17896 0.4702,0.3977 -0.13519,0.21874 0.33806,1.06578 1.05167,1.88233 0.7136,0.81655 2.57478,3.01358 4.13596,4.8823 2.67818,3.20577 3.6415,3.98559 3.6415,2.94785 0,-0.25128 0.7945,-0.32201 1.8,-0.16024 2.02653,0.32604 2.09285,0.51715 -1.19244,-3.43634 -0.95354,-1.14749 -1.56756,-2.41661 -1.56756,-3.24 0,-0.74448 0.11746,-1.3536 0.26103,-1.3536 0.14356,0 1.54655,1.06983 3.11776,2.3774 2.27858,1.89625 2.70747,2.46093 2.11921,2.79014 -0.64235,0.35948 -0.6066,0.5792 0.27707,1.7026 0.55804,0.70942 1.32293,1.28986 1.69977,1.28986 0.37684,0 0.68516,0.18468 0.68516,0.4104 0,0.34556 4.16616,1.03644 10.32,1.71138 0.792,0.0869 1.872,-0.0158 2.4,-0.22818 0.83804,-0.33707 0.7923,-0.39041 -0.36,-0.41986 -0.726,-0.0186 -1.32,-0.28574 -1.32,-0.59374 0,-0.308 -0.14114,-0.41886 -0.31364,-0.24636 -0.1725,0.1725 -0.9825,-0.0854 -1.8,-0.57308 -0.8175,-0.48769 -2.89036,-1.15012 -4.60636,-1.47207 -4.32456,-0.81135 -5.51271,-1.32972 -4.85749,-2.11922 0.38695,-0.46625 0.27172,-0.89352 -0.44985,-1.66804 -1.20705,-1.29561 -0.72004,-1.31878 1.70734,-0.0812 2.39471,1.22089 3.68364,1.26834 3.25995,0.12 -0.17046,-0.462 -0.43575,-0.948 -0.58953,-1.08 -0.15378,-0.132 -0.69776,-1.03718 -1.20882,-2.01151 -0.52522,-1.00129 -1.41017,-1.89222 -2.03541,-2.04915 -1.96722,-0.49373 -1.17467,-1.05613 1.43353,-1.01723 2.13016,0.0318 2.86994,0.29947 4.58742,1.65994 1.38714,1.09881 2.72845,1.69879 4.15798,1.85991 3.40994,0.38435 3.67116,0.0902 2.35749,-2.65471 -1.40147,-2.92838 -1.61077,-3.09279 -5.60605,-4.40363 -1.78388,-0.5853 -3.12624,-1.2538 -2.983,-1.48556 0.14744,-0.23856 0.78725,-0.22108 1.47468,0.0403 0.66784,0.25391 2.53627,0.46166 4.15207,0.46166 2.2008,0 3.18641,0.22588 3.92875,0.90038 0.81774,0.74302 6.39636,1.97962 8.93055,1.97962 0.86052,0 0.46433,-0.95283 -1.14706,-2.75862 -0.8841,-0.99076 -1.7427,-2.50338 -1.908,-3.36138 -0.28476,-1.47806 0.23395,-2.11797 0.87545,-1.08 0.16316,0.264 0.80591,0.48 1.42833,0.48 0.62242,0 1.20367,0.20662 1.29167,0.45916 0.23787,0.68261 7.11935,1.65349 7.68815,1.08469 0.30126,-0.30126 -0.0985,-1.01265 -1.1311,-2.01274 -1.03713,-1.00449 -1.38669,-1.62819 -0.99705,-1.77895 0.33,-0.12769 0.6,-0.56333 0.6,-0.96808 0,-0.61507 0.49267,-0.68613 3,-0.43276 4.08388,0.41269 4.80753,-0.13459 2.70513,-2.04583 -1.52609,-1.38732 -1.5584,-1.47821 -0.53007,-1.49143 0.60229,-0.008 1.2194,-0.33806 1.37136,-0.73406 0.46134,-1.20225 1.45615,-0.81692 3.0339,1.17514 2.43479,3.07418 4.7072,3.82925 9.25968,3.07677 1.33188,-0.22015 1.8,-0.53085 1.8,-1.19472 0,-1.09365 0.83796,-1.15643 1.95402,-0.14641 0.60038,0.54334 1.30714,0.66121 2.5578,0.42658 0.9505,-0.17831 1.72818,-0.48167 1.72818,-0.67412 0,-0.19245 -1.19502,-0.6366 -2.6556,-0.98698 -1.95071,-0.46798 -2.79744,-0.49522 -3.19002,-0.10264 -0.39258,0.39258 -1.0204,0.28651 -2.36529,-0.3996 -1.22121,-0.62301 -2.91608,-0.95579 -5.08997,-0.99939 -1.79251,-0.036 -2.71912,-0.15042 -2.05912,-0.25438 0.66,-0.10396 1.70796,-0.30017 2.3288,-0.43603 l 1.12881,-0.24701 -1.50499,-1.43825 c -0.82775,-0.79104 -1.37479,-1.64894 -1.21564,-1.90644 0.15915,-0.2575 0.49043,-0.34392 0.73619,-0.19202 0.24575,0.15188 0.44683,0.0346 0.44683,-0.2605 0,-0.29517 0.19755,-0.41457 0.439,-0.26534 0.24145,0.14922 0.55077,-3e-5 0.68738,-0.33167 0.16513,-0.40091 0.68501,-0.1204 1.55123,0.83701 0.71658,0.792 1.86526,1.81657 2.55263,2.27683 1.36128,0.91151 4.61079,1.13816 5.0946,0.35534 0.16582,-0.26831 0.48243,-0.37601 0.70356,-0.23934 0.22114,0.13667 0.29112,-0.17579 0.15551,-0.69435 -0.23487,-0.89818 -3.50391,-3.78749 -3.50391,-3.09691 0,0.18174 -0.66933,-0.50927 -1.4874,-1.53557 -1.4052,-1.76287 -1.43272,-1.87435 -0.49794,-2.01703 0.5442,-0.0831 1.74777,0.2088 2.6746,0.64861 1.28777,0.61109 2.34635,0.72291 4.4892,0.4742 4.39065,-0.50958 4.45405,-0.77293 0.87621,-3.64003 -1.74607,-1.39921 -3.17467,-2.80899 -3.17467,-3.13284 0,-0.35134 1.01636,-0.71265 2.52,-0.89585 4.18616,-0.51002 7.1352,-1.29746 6.94917,-1.85556 -0.0965,-0.28934 -0.78932,-0.86635 -1.53971,-1.28226 -0.75039,-0.4159 -1.5995,-1.18123 -1.88691,-1.70072 -0.2874,-0.51948 -0.71915,-1.08665 -0.95945,-1.26037 -0.24029,-0.17372 0.83971,-0.46179 2.4,-0.64015 1.5603,-0.17836 3.76232,-0.66241 4.89339,-1.07566 l 2.05649,-0.75136 -1.06016,-1.12849 c -0.58309,-0.62067 -1.33446,-1.12849 -1.66972,-1.12849 -0.33526,0 -1.18929,-0.49866 -1.89784,-1.10812 -0.97135,-0.83553 -1.20644,-1.36596 -0.95562,-2.15623 0.3193,-1.00603 0.39154,-1.01764 1.79982,-0.28939 0.95946,0.49616 2.02422,0.6542 3.07694,0.4567 2.04816,-0.38423 4.99585,-1.60759 4.98625,-2.0694 -0.0305,-1.46751 -3.70229,-2.64464 -6.88749,-2.20806 -1.51995,0.20833 -2.22516,0.13218 -2.22516,-0.24026 0,-0.29988 0.324,-0.54524 0.72,-0.54524 0.41474,0 0.72,-0.43365 0.72,-1.0228 0,-0.90085 0.20032,-0.9903 1.68,-0.75018 0.924,0.14994 1.68,0.0702 1.68,-0.1772 0,-0.2474 0.54694,-0.44982 1.21542,-0.44982 1.56724,0 4.54458,-1.24182 4.54458,-1.89551 0,-1.65185 -4.1996,-4.02062 -6.39724,-3.60835 -1.51905,0.28498 -1.57202,0.2409 -1.61698,-1.34552 l -0.0465,-1.64016 2.26572,0.21771 c 1.65985,0.15949 2.77826,-0.0438 4.18247,-0.76015 3.18823,-1.62652 3.36468,-2.16083 1.28084,-3.8785 -1.80136,-1.48484 -3.38701,-1.87862 -4.25231,-1.05603 -0.46501,0.44207 -6.07575,1.98211 -7.09477,1.94738 -0.75472,-0.0257 2.6155,-1.69056 4.25558,-2.1022 l 1.3047,-0.32746 -1.10265,-1.17371 c -0.60645,-0.64554 -1.00688,-1.26948 -0.88983,-1.38653 0.36652,-0.36652 5.51995,-0.44568 6.08972,-0.0935 0.53885,0.33302 1.99699,-0.30222 3.5564,-1.54933 0.74979,-0.59964 0.69904,-0.74959 -0.63297,-1.87042 -1.6198,-1.36297 -1.02146,-1.45408 -8.49697,1.29387 -4.70886,1.73094 -7.37279,1.98837 -3.44521,0.33293 5.85274,-2.46688 8.16,-3.7186 8.16,-4.42688 0,-0.403842 -0.22546,-0.594915 -0.50102,-0.424606 -0.27557,0.170308 -0.76157,0.12011 -1.08,-0.111557 -1.39662,-1.01605 -4.31477,-1.642877 -6.18069,-1.327632 -1.38362,0.23376 -1.86304,0.174566 -1.63071,-0.201351 0.181,-0.292848 0.69433,-0.53736 1.14075,-0.543355 0.44642,-0.006 2.20564,-0.761995 3.90938,-1.68 1.70377,-0.918005 3.30676,-1.669099 3.56223,-1.669099 0.59382,0 2.22008,-1.460938 2.22008,-1.994395 0,-0.22308 -0.30898,-0.405605 -0.68662,-0.405605 -0.37764,0 -0.75564,-0.483792 -0.84,-1.075094 -0.0844,-0.591308 -0.55696,-1.152068 -1.05023,-1.246148 -0.53263,-0.101582 -0.77088,0.03278 -0.58666,0.330845 0.18571,0.300471 -0.41755,0.619503 -1.50315,0.794947 -0.99734,0.161184 -2.38667,0.6041 -3.0874,0.984255 -1.42733,0.774345 -6.64594,0.949603 -6.64594,0.223195 0,-0.2574 0.594,-0.351178 1.32,-0.208397 1.86201,0.366202 5.17621,-0.825485 5.09758,-1.832928 -0.0714,-0.914592 2.12159,-1.579718 3.62998,-1.100971 0.65899,0.209155 1.68257,-0.246317 3.34838,-1.489958 l 2.39924,-1.791202 -1.20232,-1.114272 c -1.39907,-1.29661 -2.43212,-1.391208 -4.33799,-0.397229 C 226.13221,84.572021 223.68,84.720418 223.68,84 c 0,-0.264 0.24118,-0.48 0.53596,-0.48 0.30993,0 0.44115,-0.495917 0.31116,-1.175952 -0.25825,-1.350946 0.33476,-1.704048 2.86181,-1.704048 2.03782,0 5.97247,-2.289024 5.77558,-3.36 -0.22558,-1.227005 -3.13454,-1.140451 -6.07883,0.180869 -3.1198,1.400078 -7.11319,2.209733 -6.57086,1.332235 0.18801,-0.30421 0.70709,-0.559973 1.15351,-0.568368 1.32873,-0.02501 2.54447,-1.208611 2.19006,-2.132194 -0.39176,-1.020921 0.5392,-1.675267 2.39759,-1.685193 1.15214,-0.0061 1.33387,-0.168403 1.1171,-0.997339 -0.22964,-0.878132 -0.10038,-0.955176 1.14401,-0.681864 1.67256,0.367358 1.76737,-0.0383 0.35924,-1.53721 -0.8113,-0.863592 -1.55939,-1.110936 -3.36,-1.110936 -1.73896,0 -2.31633,-0.179467 -2.31633,-0.72 0,-0.396 0.34711,-0.72 0.77136,-0.72 0.54117,0 0.67222,-0.250666 0.43916,-0.84 -0.18271,-0.462 -0.44952,-1.538539 -0.59291,-2.392315 -0.1434,-0.853771 -0.55702,-1.798219 -0.91917,-2.098771 -0.84688,-0.70285 -0.84411,-1.388914 0.006,-1.388914 1.08099,0 1.23348,-2.279035 0.22992,-3.436152 -1.16588,-1.344259 -1.12917,-1.843848 0.13545,-1.843848 0.97685,0 1.01454,-0.159307 0.73806,-3.12 -0.17191,-1.84093 -0.10572,-3.12 0.16144,-3.12 0.77192,0 1.1516,-2.459423 0.44692,-2.894937 -0.45482,-0.281098 -0.49141,-0.571874 -0.12941,-1.02848 0.27758,-0.35012 0.64438,-2.062044 0.8151,-3.804274 0.27093,-2.764889 0.18314,-3.329479 -0.6904,-4.44 -0.55044,-0.69977 -1.25512,-1.269001 -1.56596,-1.264959 -0.33052,0.0043 -0.26624,0.200531 0.15484,0.47265 0.62069,0.401124 0.6082,0.466313 -0.0906,0.47265 -0.86857,0.0079 -0.89705,0.141518 -1.8423,8.64735 -0.31709,2.853259 -0.88329,5.278627 -1.51278,6.48 -1.18528,2.262115 -2.30059,6.162835 -2.30863,8.074286 -0.003,0.744855 -0.29192,1.640511 -0.64175,1.99034 -0.34983,0.349828 -0.90977,2.872401 -1.2443,5.605713 -0.33453,2.733312 -0.91231,6.188842 -1.28394,7.678944 -0.37164,1.490107 -0.67571,3.49957 -0.67571,4.465474 0,1.867819 -2.6297,17.761099 -3.33985,20.185243 -0.42697,1.45747 -0.95309,4.07106 -2.22237,11.04 -0.38466,2.112 -1.25823,5.46 -1.94126,7.44 -2.43898,7.07023 -2.96792,8.51284 -3.45036,9.41037 -0.26891,0.5003 -0.91984,1.79884 -1.4465,2.88566 -0.52666,1.08682 -1.8391,3.13882 -2.91655,4.56 -1.07744,1.42118 -1.95991,2.80823 -1.96105,3.08233 -0.003,0.77332 -3.68011,3.63019 -8.03953,6.24653 -6.61926,3.97261 -7.52845,4.45624 -8.45282,4.49642 -0.48966,0.0213 -1.94825,0.57007 -3.24131,1.21954 -1.29306,0.64947 -3.95939,1.51307 -5.92518,1.91911 -1.96578,0.40605 -4.07119,0.93945 -4.67869,1.18535 -2.41921,0.97923 -15.99189,2.8986 -24.2659,3.43154 -12.19802,0.78569 -26.99868,-0.0752 -35.15863,-2.04511 -2.244,-0.54172 -4.836,-1.16111 -5.76,-1.37643 -4.121918,-0.96051 -5.291582,-1.35507 -6.563285,-2.21398 -0.746193,-0.50398 -2.220715,-1.1932 -3.276715,-1.53159 -1.056,-0.3384 -4.395542,-1.84002 -7.421208,-3.33695 -4.514904,-2.23371 -6.106982,-3.32598 -8.88,-6.09226 C 70.1094,136.82218 66.810821,131.66436 63.33181,123.64909 60.83952,117.90712 58.690882,107.77482 56.399827,90.96 c -0.431645,-3.168 -0.963101,-6.948 -1.181011,-8.4 -0.21791,-1.452 -0.279821,-5.354386 -0.137573,-8.671968 0.142243,-3.317582 0.104434,-6.853886 -0.08402,-7.858459 L 54.65457,64.203082 53.341022,65.461541 C 52.618565,66.153691 51.681374,66.72 51.258365,66.72 c -0.67104,0 -0.74184,-0.657936 -0.555264,-5.16 0.143587,-3.464832 0.428424,-5.375021 0.867019,-5.814509 0.550973,-0.552086 0.515971,-0.890093 -0.223666,-2.16 -1.421894,-2.441309 -2.095108,-6.409256 -2.1216,-12.504812 -0.02635,-6.06922 -0.164313,-6.410929 -2.364975,-5.858598 -0.746733,0.187417 -1.279428,0.856234 -1.662134,2.086866 -0.689752,2.217965 -1.098791,25.9742 -0.518802,30.131053 0.516635,3.702792 -0.105475,6.016944 -2.085638,7.758235 -1.254897,1.103515 -3.96081,4.275298 -6.485219,7.601765 -2.623523,3.45707 -6.135257,10.037491 -6.84055,12.818088 -0.220687,0.870053 -0.958699,3.525912 -1.640026,5.901912 -1.817887,6.33954 -2.784008,12.63152 -2.518782,16.40388 0.126686,1.80187 0.37115,5.32812 0.543255,7.83612 0.172104,2.508 0.61115,5.316 0.975658,6.24 0.364508,0.924 0.792738,2.28283 0.951622,3.01963 0.158885,0.7368 0.496075,1.21158 0.749311,1.05507 0.253236,-0.15651 0.340179,0.0288 0.193205,0.41182 -0.484056,1.26143 0.741539,1.35527 1.313227,0.10055 0.619023,-1.35861 1.676134,-1.72519 1.116213,-0.38707 -0.981768,2.34625 -1.216297,7.47389 -0.271956,5.94591 0.626952,-1.01442 1.546573,0.34076 1.665922,2.45496 0.06787,1.20232 0.515488,2.78443 0.994701,3.5158 0.787958,1.20257 0.927472,1.25294 1.458621,0.52655 0.884437,-1.20954 1.680173,-0.96653 1.692166,0.51678 0.01262,1.561 1.550878,3.75819 2.304872,3.2922 0.29,-0.17923 0.658067,-1.02307 0.817926,-1.87519 0.302758,-1.61384 1.892743,-4.11079 2.335619,-3.66792 0.140111,0.14011 -0.03417,0.81164 -0.387298,1.49229 -1.045288,2.01479 -1.887165,5.91438 -1.559068,7.22162 0.167804,0.66859 0.735451,1.72892 1.261436,2.3563 1.120788,1.33685 1.445412,1.04139 2.702027,-2.4593 1.182269,-3.29357 1.702553,-4.24367 2.489191,-4.54553 0.523622,-0.20093 0.59376,-0.10955 0.256768,0.33454 -0.255003,0.33605 -0.851405,1.93342 -1.325339,3.54972 -0.704726,2.40339 -0.760955,3.23407 -0.308666,4.56 0.706516,2.07123 2.127922,3.77593 3.343635,4.01006 0.869203,0.16739 0.939917,-0.0511 0.822797,-2.54283 -0.130243,-2.77096 0.382853,-4.64344 1.143561,-4.17329 0.230981,0.14275 0.423543,1.6068 0.427911,3.25344 0.0107,4.03948 1.338955,7.32018 3.666249,9.05545 2.0957,1.56259 2.810103,1.41376 2.105069,-0.43855 -0.783744,-2.05909 -1.041912,-7.6432 -0.372499,-8.05692 0.944318,-0.58362 1.865136,1.25832 1.865136,3.73088 0,1.3214 0.416362,3.19926 0.97092,4.37904 1.075349,2.2877 4.466477,5.81281 6.045869,6.28474 0.982992,0.29372 1.008768,0.19173 0.775502,-3.06847 -0.224913,-3.14349 -0.175473,-3.37228 0.728731,-3.37228 0.972509,0 1.1159,0.36156 1.808501,4.56 0.657058,3.98297 2.601259,6.45249 5.690299,7.22779 1.098528,0.27571 1.224898,0.19776 0.931124,-0.57439 -0.186951,-0.49137 -0.837394,-1.28708 -1.445429,-1.76824 -1.281096,-1.01378 -1.431432,-1.76516 -0.35317,-1.76516 0.539784,0 0.664195,-0.27774 0.440343,-0.98304 -0.334296,-1.05326 0.556891,-2.53894 1.261699,-2.10335 0.234086,0.14468 0.425611,0.58814 0.425611,0.98547 0,0.39734 0.530309,1.88181 1.178467,3.29882 0.897183,1.96145 1.680591,2.87066 3.282168,3.80924 3.419664,2.00406 3.694109,1.65004 2.479349,-3.19827 -0.366182,-1.4615 0.05387,-3.72887 0.690811,-3.72887 0.226877,0 0.66036,1.66645 0.963293,3.70324 0.555163,3.73266 1.619496,6.16751 2.466998,5.64373 0.252404,-0.156 0.458914,0.0394 0.458914,0.43429 0,0.4591 0.562392,0.77214 1.56,0.86833 0.992813,0.0957 1.56,0.4098 1.56,0.86383 0,0.39239 0.378,0.78623 0.84,0.8752 0.462,0.089 0.84,-0.0701 0.84,-0.35343 0,-0.28335 -0.228749,-0.51519 -0.50833,-0.51519 -0.27958,0 -0.39624,-0.18136 -0.259248,-0.40302 0.136997,-0.22166 -0.185673,-1.21418 -0.717043,-2.2056 -0.630389,-1.17617 -0.915605,-2.48268 -0.820752,-3.75967 0.162384,-2.18611 1.103669,-2.92043 1.561445,-1.21813 1.080442,4.01776 1.501526,5.04069 2.38775,5.80054 1.361554,1.16739 4.591872,2.74588 5.619346,2.74588 0.784699,0 0.775627,-0.15197 -0.131486,-2.20266 C 97.79029,182.20833 97.911542,180 99.059707,180 c 0.352781,0 0.841507,0.69767 1.086063,1.55038 0.35005,1.22057 1.00299,1.8315 3.06944,2.87196 3.48701,1.75571 4.4337,1.75991 3.97727,0.0177 -0.52771,-2.01432 -0.45488,-3.60473 0.17502,-3.82231 0.77696,-0.26837 1.56227,1.34186 1.70993,3.50611 0.14425,2.11425 2.0169,4.2611 4.05904,4.65336 0.73894,0.14194 1.41725,0.18542 1.50736,0.0966 0.47581,-0.46888 -0.64242,-2.24045 -1.87304,-2.9674 -1.53366,-0.90595 -1.82995,-1.58639 -0.69079,-1.58639 0.396,0 0.747,-0.432 0.78,-0.96 0.033,-0.528 0.087,-1.23 0.12,-1.56 0.033,-0.33 0.48992,-0.6 1.01538,-0.6 0.75621,0 1.03905,0.45796 1.35671,2.19673 0.36845,2.01673 0.57532,2.26847 2.52463,3.07234 2.34936,0.96883 2.73695,1.91284 0.96769,2.35689 -1.26002,0.31625 -1.26449,1.11089 -0.022,3.91324 0.35584,0.80255 0.88056,2.92141 1.16606,4.70856 0.2855,1.78716 0.70094,3.61452 0.9232,4.06081 0.35708,0.71701 0.85485,2.50193 2.43496,8.73143 1.04069,4.10285 2.69011,9.88156 2.94563,10.32 0.15386,0.264 0.56189,1.56 0.90674,2.88 0.92625,3.54552 1.56492,4.08 4.87541,4.08 h 2.8056 v -16.98864 z m -12.74009,-23.40304 c -0.1955,-0.62058 -0.86496,-1.88046 -1.48768,-2.79974 -0.70257,-1.03715 -1.13223,-2.37042 -1.13223,-3.51339 0,-1.62725 0.12382,-1.82408 1.06223,-1.68857 1.09313,0.15784 1.15246,0.29632 2.37947,5.55438 0.42738,1.83148 0.44406,2.66524 0.061,3.04832 -0.38309,0.38309 -0.62454,0.2187 -0.88277,-0.601 z m -85.587677,-41.2092 c 0.568692,-1.63135 1.159406,-2.16458 1.602928,-1.44695 0.165822,0.26831 0.09616,0.48783 -0.154797,0.48783 -0.250961,0 -0.591824,0.54 -0.757473,1.2 -0.16565,0.66 -0.50183,1.2 -0.747067,1.2 -0.261986,0 -0.238721,-0.59427 0.05641,-1.44088 z M 32.48,141.76 c -0.535015,-0.53501 -0.358495,-1.48252 0.32506,-1.74483 0.462028,-0.17729 0.582348,0.0805 0.424044,0.90865 -0.241707,1.26441 -0.279118,1.30617 -0.749104,0.83618 z m 84.07188,51.32 c -0.12028,-1.04533 -0.40021,-1.32 -1.3453,-1.32 -0.78646,0 -1.2527,0.30776 -1.36724,0.90248 -0.19134,0.99361 0.64382,1.7188 1.99254,1.73017 0.66927,0.006 0.83659,-0.2994 0.72,-1.31265 z m 44.97146,-1.64333 c 0.11654,-0.11655 -1.51054,-0.53049 -3.61572,-0.91988 -2.8112,-0.51998 -3.82762,-0.56045 -3.82762,-0.15239 0,0.63674 2.53392,1.25828 3.5462,0.86983 0.37218,-0.14282 0.80747,-0.0481 0.96731,0.21055 0.27626,0.447 2.48082,0.44089 2.92983,-0.008 z m -59.91886,-0.32915 c -0.48154,-0.18975 -0.84334,-0.54717 -0.804,-0.79426 0.0394,-0.24709 -0.19075,-0.53668 -0.5113,-0.64353 -0.334364,-0.11146 -0.43994,0.0369 -0.24767,0.348 0.44523,0.72039 -0.336116,0.69566 -1.06551,-0.0337 -0.447998,-0.448 -0.576,-0.40209 -0.576,0.20661 0,0.74857 1.048546,1.16203 3.12,1.23028 0.87731,0.0289 0.88459,0.002 0.0845,-0.31337 z m 7.83552,-0.35346 c 0,-0.9146 -1.82045,-3.11518 -2.97147,-3.59195 -0.74169,-0.30722 -1.34853,-0.72495 -1.34853,-0.92831 0,-0.20335 -0.51993,-0.50022 -1.15541,-0.65972 -0.63547,-0.15949 -1.48773,-0.41751 -1.89391,-0.57338 -0.63675,-0.24434 -0.66146,-0.0793 -0.17936,1.19796 0.32729,0.86707 0.90273,1.48134 1.38772,1.48134 0.45572,0 1.11243,0.59224 1.45936,1.31608 0.40178,0.8383 1.15188,1.42758 2.06619,1.62321 2.0202,0.43225 2.63541,0.46371 2.63541,0.13477 z M 96.082066,186.89508 C 95.176483,185.64756 94.08,185.40717 94.08,186.45615 c 0,0.74873 1.11216,1.54385 2.159443,1.54385 0.494002,0 0.457215,-0.25826 -0.157377,-1.10492 z m 78.364014,-0.75434 c 1.49758,-0.0394 2.81809,-0.22569 2.93446,-0.41398 0.20675,-0.33453 -8.93346,-4.26522 -10.32215,-4.43897 -1.4146,-0.177 -0.98035,1.54973 0.88212,3.5076 1.40951,1.48169 2.15854,1.93247 2.84763,1.71377 0.51428,-0.16323 2.16035,-0.32902 3.65794,-0.36842 z M 185.63,184.03 c -0.1595,-0.1595 -0.5735,-0.17655 -0.92,-0.0379 -0.38291,0.15322 -0.26917,0.26696 0.29,0.28999 0.506,0.0208 0.7895,-0.0926 0.63,-0.2521 z m 66.56244,-1.43913 c 0.24218,-0.63111 -2.68196,-7.52405 -3.54261,-8.35087 -0.13741,-0.132 -0.32387,-0.996 -0.41436,-1.92 -0.0905,-0.924 -0.33234,-1.896 -0.53742,-2.16 -0.20508,-0.264 -0.52839,-1.344 -0.71846,-2.4 -0.34636,-1.92431 -3.75045,-12.86644 -4.70382,-15.12 -0.27921,-0.66 -0.54627,-1.524 -0.59345,-1.92 -0.15824,-1.328 -0.83036,-2.88 -1.24724,-2.88 -0.22712,0 -0.75732,0.52559 -1.17823,1.16796 -1.00576,1.53499 -0.55226,4.65208 1.33151,9.15204 0.77361,1.848 1.702,4.332 2.06309,5.52 0.3611,1.188 1.10024,3.43553 1.64254,4.99451 1.04649,3.00837 1.36862,5.94028 0.50601,4.60549 -0.25592,-0.396 -0.46861,-1.206 -0.47265,-1.8 -0.004,-0.594 -0.22335,-1.08 -0.48735,-1.08 -0.264,0 -0.48,-0.44596 -0.48,-0.99102 0,-0.86506 -1.07625,-3.9006 -2.45667,-6.92898 -0.24068,-0.528 -1.07745,-2.78026 -1.85949,-5.00503 -1.55821,-4.43281 -2.12029,-5.31052 -2.90094,-4.52987 -0.46158,0.46158 -0.10458,1.95737 2.39028,10.0149 0.24522,0.792 1.0251,3.6 1.73305,6.24 0.70796,2.64 1.45053,4.908 1.65018,5.04 0.19964,0.132 0.52525,0.996 0.72359,1.92 0.19834,0.924 0.60347,1.83869 0.9003,2.03265 0.37994,0.24826 0.35857,0.35483 -0.0722,0.36 -0.61384,0.007 -0.93882,-0.63721 -2.50444,-4.96738 -0.46428,-1.28411 -1.03304,-2.47211 -1.26392,-2.64 -0.23087,-0.1679 -0.48988,-0.95327 -0.57558,-1.74527 -0.0857,-0.792 -0.45597,-2.088 -0.82284,-2.88 -0.36686,-0.792 -1.28965,-3.14966 -2.05063,-5.23926 -1.08381,-2.97601 -1.60757,-3.83343 -2.41716,-3.95699 -0.83286,-0.1271 -1.03355,0.0839 -1.03355,1.08672 0,0.68444 0.30537,1.92509 0.6786,2.75699 0.96585,2.15278 1.85481,5.13913 1.60435,5.3896 -0.11701,0.117 -0.60068,-0.64759 -1.07484,-1.69908 -0.47417,-1.0515 -1.08134,-1.77633 -1.34927,-1.61074 -0.27476,0.16981 -0.34051,0.0638 -0.1508,-0.24315 0.38942,-0.63011 -0.48001,-2.48409 -1.16493,-2.48409 -1.30351,0 -0.13746,4.36432 2.88552,10.8 0.86804,1.848 1.92771,4.11271 2.35482,5.03268 0.4271,0.91997 1.01913,1.93398 1.31561,2.25335 0.29649,0.31937 1.14179,1.53337 1.87846,2.69778 l 1.33938,2.11711 5.391,0.0674 c 4.53086,0.0567 5.43785,-0.0546 5.68454,-0.69748 z M 245.7979,174.92 c 0.023,-0.55917 0.13677,-0.67291 0.28999,-0.29 0.13866,0.3465 0.12161,0.7605 -0.0379,0.92 -0.1595,0.1595 -0.27295,-0.124 -0.2521,-0.63 z m -9.12,-3.84 c 0.023,-0.55917 0.13677,-0.67291 0.28999,-0.29 0.13866,0.3465 0.12161,0.7605 -0.0379,0.92 -0.1595,0.1595 -0.27295,-0.124 -0.2521,-0.63 z m -51.30938,10.12 c -0.0833,-0.264 -0.48298,-0.41155 -0.88817,-0.3279 -0.40518,0.0837 -0.6089,-0.0547 -0.45272,-0.30737 0.15618,-0.25271 -0.41614,-0.59232 -1.27183,-0.75469 -0.85569,-0.16238 -2.13525,-0.59771 -2.84347,-0.9674 -2.29838,-1.19976 -4.19538,-1.41744 -4.53942,-0.52089 -0.50269,1.31 1.35878,2.68847 4.20533,3.11414 3.28996,0.49198 5.98533,0.38217 5.79028,-0.23589 z m 50.49366,-1.53286 c -1.05802,-1.4171 -3.05934,-2.18221 -4.07163,-1.55658 -0.76613,0.4735 -0.66004,0.59508 2.03771,2.33512 2.44322,1.57588 3.49202,1.17443 2.03392,-0.77854 z M 198.48,179.52 c 0,-0.55139 -1.032,-0.83717 -4.40673,-1.22033 -2.77635,-0.31521 -4.30111,-0.32943 -4.12126,-0.0384 0.16633,0.26913 -0.0646,0.32756 -0.55338,0.14001 -0.56022,-0.21498 -0.76851,-0.1225 -0.62708,0.27842 0.11648,0.33018 0.5642,0.57072 0.99495,0.53452 0.43074,-0.0362 0.67485,0.10947 0.54246,0.32368 -0.37614,0.6086 1.15855,0.85611 4.81104,0.77591 2.63388,-0.0578 3.36,-0.22938 3.36,-0.79378 z m -13.2,-1.45188 c 0,-0.71428 -2.18594,-1.43369 -4.23125,-1.39252 l -1.76875,0.0356 1.92,0.8888 c 2.1459,0.99338 4.08,1.21529 4.08,0.46812 z M 32.16,176.93855 c 0,-0.3638 0.486,-0.99117 1.08,-1.39415 0.93669,-0.63547 1.000383,-0.8653 0.48,-1.73203 -0.79907,-1.33091 -0.763187,-1.49237 0.331672,-1.49237 0.51242,0 1.085793,-0.24937 1.274164,-0.55416 0.216666,-0.35058 0.131176,-0.42357 -0.232698,-0.19868 -0.316355,0.19552 -0.886978,0.0967 -1.268052,-0.21954 -0.855272,-0.70981 -2.335537,-0.21627 -1.997039,0.66584 0.136209,0.35495 -0.177353,1.00927 -0.696805,1.45404 -0.61919,0.53017 -0.841498,1.13306 -0.645503,1.75058 0.210242,0.66242 0.0757,0.94192 -0.453393,0.94192 -0.41379,0 -0.752346,0.324 -0.752346,0.72 0,0.48 0.48,0.72 1.44,0.72 0.903352,0 1.44,-0.2465 1.44,-0.66145 z m 32.16,-0.0398 c 0,-0.72878 -1.938446,-2.80026 -2.290747,-2.44796 -0.110333,0.11034 -0.05489,0.86406 0.123206,1.67493 0.224381,1.02158 0.606903,1.47432 1.245682,1.47432 0.507019,0 0.921859,-0.31559 0.921859,-0.7013 z m -38.797073,-0.49054 c 0.441609,-0.17733 1.149389,-1.05254 1.572845,-1.9449 0.423455,-0.89237 0.961449,-1.74086 1.195542,-1.88553 0.234093,-0.14469 0.88804,-1.21828 1.453216,-2.38578 0.565176,-1.1675 1.769768,-3.0563 2.676872,-4.19734 0.907104,-1.14104 1.651377,-2.2517 1.653939,-2.46813 0.0025,-0.21644 0.685217,-1.38268 1.517011,-2.59164 0.987316,-1.43502 1.362255,-2.39507 1.08,-2.7654 -0.237794,-0.31199 -1.233381,-1.76735 -2.212418,-3.23413 -0.979035,-1.46678 -2.070622,-2.96127 -2.425747,-3.32109 -0.355125,-0.35983 -0.987484,-1.51823 -1.405241,-2.57423 -0.417757,-1.056 -1.05417,-1.97882 -1.414252,-2.05072 -0.784522,-0.15664 -4.894074,6.29737 -6.960072,10.93072 -0.41201,0.924 -1.916681,4.02128 -3.343714,6.88284 -1.427033,2.86157 -2.4524,5.43294 -2.278593,5.71417 0.182023,0.29452 0.08971,0.37146 -0.217709,0.18146 -0.594636,-0.3675 -2.21151,2.35461 -1.796979,3.02533 0.141272,0.22858 -0.0659,0.53946 -0.460384,0.69084 -0.858752,0.32953 -0.932333,1.33827 -0.154368,2.11624 0.59624,0.59623 9.978535,0.4963 11.520052,-0.12272 z m 180.923013,-0.59166 c 0.76673,-0.45292 1.39406,-0.98313 1.39406,-1.17825 0,-0.40767 -2.97041,-1.03331 -4.92,-1.03626 -0.726,-9.6e-4 -1.32,-0.15915 -1.32,-0.35122 0,-0.19207 -0.486,-0.35476 -1.08,-0.36151 -0.594,-0.007 -1.674,-0.16279 -2.4,-0.34674 -1.62001,-0.41046 -1.72914,0.30343 -0.32128,2.10176 0.7734,0.9879 1.55852,1.33928 3.48,1.55747 1.3647,0.15497 2.77195,0.31697 3.12722,0.36 0.35527,0.0431 1.27327,-0.29233 2.04,-0.74525 z M 233.46,175.7771 c 0.40285,-0.65182 -0.36911,-1.44578 -1.74034,-1.78994 -0.99398,-0.24948 -1.38669,-0.13097 -1.62513,0.49039 -0.18342,0.47798 -0.0353,0.9961 0.35552,1.24356 0.83901,0.53126 2.69488,0.56578 3.00995,0.056 z m -38.80096,-1.93408 c -1.5445,-1.6693 -2.04338,-1.88962 -5.46511,-2.41342 -2.071,-0.31704 -4.15829,-0.42568 -4.63843,-0.24144 -0.60188,0.23097 -0.7652,0.1606 -0.52591,-0.22657 0.19089,-0.30887 0.11832,-0.56157 -0.16126,-0.56157 -0.8894,0 -0.54749,0.90494 0.57167,1.51306 2.27808,1.23782 9.30128,3.72394 10.57935,3.74494 l 1.33934,0.022 z m 37.43401,-1.54411 c 0.45192,-0.73123 -1.09437,-2.86148 -2.06411,-2.84363 -1.01358,0.0187 -2.50894,1.09972 -2.50894,1.8138 0,1.24563 3.89726,2.12327 4.57305,1.02983 z m -29.27375,-2.002 c 0.21204,0.18871 -0.22509,-0.47723 -0.97139,-1.47987 -1.76506,-2.37133 -2.26165,-2.58856 -6.16824,-2.69825 -2.92827,-0.0822 -3.26313,9.6e-4 -3.12,0.77457 0.17606,0.95168 4.12134,3.11304 5.08033,2.78317 0.33,-0.11351 0.6,-0.0115 0.6,0.22667 0,0.57528 2.43458,0.86879 3.41689,0.41192 0.42729,-0.19873 0.95037,-0.20693 1.16241,-0.0182 z m 8.79029,-0.20527 c 3.86727,-0.40421 3.9279,-1.3727 0.11092,-1.77165 -1.56173,-0.16323 -3.77573,-0.62286 -4.92,-1.02139 -2.10151,-0.73194 -4.24051,-0.96728 -4.24051,-0.46657 0,0.14961 0.56564,1.01361 1.25697,1.92 1.38419,1.81477 2.08832,1.93581 7.79262,1.33959 z M 37.200555,168.9591 c 0.356325,-0.57654 -2.057297,-1.58143 -2.963331,-1.23376 -0.350473,0.1345 -0.637224,0.57531 -0.637224,0.9796 0,0.84506 3.100109,1.0639 3.600555,0.25416 z M 230.4,167.96465 c 0,-0.22799 -0.33283,-0.2868 -0.73963,-0.1307 -0.47069,0.18062 -0.68886,0.0443 -0.6,-0.37506 0.0932,-0.43966 -0.32552,-0.65889 -1.25836,-0.65889 -1.93726,0 -2.18066,-1.13227 -0.32326,-1.50375 1.51995,-0.30399 1.79553,-0.85634 1.03048,-2.06539 -0.36,-0.56893 -0.56711,-0.58037 -1.18736,-0.0656 -0.41322,0.34294 -0.6123,0.84842 -0.44242,1.1233 0.16988,0.27488 0.084,0.36078 -0.1909,0.1909 -0.27488,-0.16988 -0.77128,0.0183 -1.10313,0.41812 -0.49047,0.59098 -0.4466,1.01808 0.23446,2.28274 0.75914,1.40963 1.01355,1.53898 2.70897,1.3773 1.02913,-0.0981 1.87115,-0.36498 1.87115,-0.59296 z M 38.64,165.35342 c 0,-1.10578 -1.945777,-1.6046 -2.815361,-0.72174 -0.407375,0.41359 -0.305034,0.72976 0.406077,1.25451 1.246877,0.9201 2.409284,0.66306 2.409284,-0.53277 z m 9.36,0.45502 c 0,-0.86713 -1.124093,-2.12844 -1.896888,-2.12844 -1.081131,0 -1.498217,0.94761 -0.779648,1.77135 C 45.836538,166.03952 48,166.32816 48,165.80844 Z m -8.510865,-2.92329 c -0.324975,-0.13148 -0.972975,-0.13948 -1.44,-0.0178 -0.467024,0.1217 -0.201135,0.22928 0.590865,0.23906 0.792,0.01 1.174111,-0.0898 0.849135,-0.22128 z M 225.1297,161.02968 c 2.17407,-2.3142 1.78203,-2.76166 -2.08555,-2.38033 -4.90782,0.48388 -5.33344,0.94322 -2.36415,2.55145 2.39028,1.29463 3.09828,1.2674 4.4497,-0.17112 z m -7.41173,-0.50028 c -0.86779,-0.86779 -3.80149,-0.9423 -3.51981,-0.0894 0.19295,0.58426 3.11834,1.31192 3.84552,0.95653 0.20003,-0.0978 0.0534,-0.48796 -0.32571,-0.86713 z M 40.657901,159.65773 c -0.581846,-0.89224 -1.135496,-1.55265 -1.230335,-1.46756 -0.367166,0.3294 1.158307,3.08983 1.707508,3.08983 0.360178,0 0.178957,-0.6161 -0.477173,-1.62227 z M 219.84,157.93001 c 1.18899,-0.75186 -0.35921,-1.82227 -3.02104,-2.08874 -2.08748,-0.20896 -2.2434,-0.1566 -1.68,0.5642 1.52207,1.94727 3.1815,2.48542 4.70104,1.52454 z m -90.65611,-2.48151 c 1.1385,0.71101 2.11453,0.69802 3.30262,-0.044 0.75892,-0.47395 1.14806,-0.47395 1.90698,0 1.19917,0.74889 2.48887,0.75605 4.0983,0.0228 0.77727,-0.35415 1.38123,-0.39849 1.58258,-0.11619 0.1791,0.2511 1.18963,0.45482 2.24563,0.45272 1.71471,-0.003 1.90394,-0.1193 1.76983,-1.08382 -0.19574,-1.40772 1.57187,-1.49953 2.31017,-0.12 0.38115,0.71219 1.00503,0.96 2.41689,0.96 1.69771,0 1.90311,-0.12646 1.90311,-1.17168 0,-1.74857 0.87963,-1.96493 2.33191,-0.57356 1.08673,1.04115 1.58416,1.19253 3.10665,0.94547 1.24843,-0.20259 1.73562,-0.49519 1.56497,-0.93988 -0.38663,-1.00754 1.40464,-1.75805 2.12484,-0.89027 0.77336,0.93185 2.59075,0.90672 3.38207,-0.0468 0.44643,-0.53791 1.0785,-0.67217 2.18618,-0.46437 1.02182,0.1917 1.69332,0.0804 1.95078,-0.32332 0.76088,-1.19313 2.51499,-1.86954 3.4921,-1.3466 1.24285,0.66515 1.9405,0.61732 1.9405,-0.13303 0,-1.24893 0.96229,-1.69175 2.4533,-1.12895 1.28681,0.48572 1.51371,0.40942 2.51424,-0.84536 0.62243,-0.78061 1.39767,-1.27242 1.78612,-1.1331 0.37749,0.13537 1.04539,-0.066 1.48424,-0.44752 0.72802,-0.63291 1.69576,-0.96678 3.08505,-1.06435 0.28763,-0.0202 0.76142,-0.5601 1.05288,-1.19978 0.29146,-0.63969 1.02611,-1.23369 1.63255,-1.32 0.63514,-0.0904 1.37002,-0.71659 1.73332,-1.47694 0.37803,-0.79121 1.01611,-1.32 1.59282,-1.32 0.52917,0 0.83017,-0.21353 0.66888,-0.4745 -0.16427,-0.26579 0.0154,-0.35608 0.40831,-0.20529 0.43721,0.16778 0.82205,-0.11041 1.02133,-0.73828 0.17587,-0.55413 0.84339,-1.35059 1.48336,-1.76992 0.63998,-0.41933 1.1636,-1.16403 1.1636,-1.65489 0,-0.50417 0.62032,-1.21325 1.42577,-1.62976 1.59896,-0.82685 2.53964,-2.24202 2.15558,-3.24287 -0.14036,-0.36579 0.18441,-1.06291 0.72172,-1.54917 0.53731,-0.48626 0.97693,-1.39966 0.97693,-2.02978 0,-0.63013 0.432,-1.60938 0.96,-2.17612 1.03158,-1.10728 1.25826,-2.52843 0.48,-3.00942 -0.86147,-0.53242 -0.50533,-1.69413 0.65454,-2.13511 1.5267,-0.58045 1.92631,-1.83738 1.02263,-3.21657 -0.70564,-1.07695 -0.68109,-1.16534 0.46912,-1.68941 1.29554,-0.59029 1.57602,-1.7646 0.64407,-2.69656 -0.43953,-0.43952 -0.34622,-0.81779 0.40847,-1.656 1.44173,-1.60127 1.66514,-2.63381 0.7647,-3.53424 -0.7409,-0.74091 -0.7284,-0.85015 0.18152,-1.58697 1.31062,-1.06127 1.8029,-3.23257 1.1114,-4.902 -0.45799,-1.105667 -0.4248,-1.48336 0.18378,-2.091942 0.66536,-0.665357 1.1865,-3.118032 1.22625,-5.771198 0.008,-0.528 0.156,-1.663978 0.32908,-2.524397 0.2028,-1.008192 0.0902,-1.834915 -0.31678,-2.325264 -0.53665,-0.646632 -0.46238,-0.888408 0.49467,-1.610309 0.97692,-0.736896 1.09302,-1.143072 0.87631,-3.065736 -0.17445,-1.547722 -0.0507,-2.381539 0.41022,-2.76407 0.88945,-0.738183 0.84749,-3.268412 -0.06,-3.616642 -1.01242,-0.388502 -0.89644,-1.455475 0.18907,-1.739342 1.32287,-0.345936 1.81647,-3.038933 0.76913,-4.196232 -0.85235,-0.941847 -0.62326,-1.918018 0.45013,-1.918018 0.97072,0 1.41499,-2.97925 0.51903,-3.480653 -0.92311,-0.5166 -0.95382,-2.279347 -0.0397,-2.279347 0.86244,0 1.46344,-1.770869 0.86305,-2.543035 -0.24674,-0.317328 -0.42658,-1.548965 -0.39966,-2.736965 0.0452,-1.994923 0.16765,-2.198366 1.60197,-2.661984 1.68278,-0.543931 3.08095,-1.817995 3.66317,-3.338016 2.08655,-5.447386 2.54125,-18.933394 0.82539,-24.48 -2.11681,-6.842661 -4.2834,-8.419498 -7.41967,-5.4 -2.89294,2.785227 -3.58929,5.498742 -1.63369,6.366179 2.83609,1.257991 4.14375,6.161193 3.49358,13.099465 -0.42169,4.500063 -0.83498,5.646467 -2.16059,5.993121 -1.49449,0.390819 -2.8812,-1.191551 -2.8812,-3.28774 0,-1.681301 -0.0291,-1.706563 -1.8,-1.56 l -1.8,0.148975 -0.14765,2.593846 c -0.0812,1.426616 0.10613,3.262615 0.41628,4.080002 1.28359,3.382752 1.97157,4.599557 3.10436,5.490614 1.16669,0.917717 1.2135,2.259586 0.10488,3.006821 -0.23769,0.160205 -0.4143,3.400205 -0.39247,7.2 0.0247,4.294728 -0.22769,8.270818 -0.66698,10.508717 -0.38865,1.98 -1.26637,7.164 -1.95046,11.52 -0.6841,4.356 -1.79439,10.404 -2.46731,13.44 -0.67293,3.036 -1.44787,6.6 -1.72209,7.92 -0.27423,1.32 -1.00708,3.73284 -1.62858,5.36187 -0.62149,1.62902 -1.12998,3.47854 -1.12998,4.11004 0,0.63149 -1.28539,3.74676 -2.85642,6.92282 -2.95116,5.96619 -3.55515,6.68249 -10.10204,11.98059 -5.56537,4.50379 -12.05992,7.67284 -19.14982,9.34425 -2.27245,0.53572 -5.85972,1.39059 -7.97172,1.89971 -2.112,0.50912 -6.72287,1.16389 -10.24637,1.45505 -7.50202,0.61993 -22.15304,0.84211 -22.15339,0.33596 -1.3e-4,-0.19234 -1.45824,-0.33786 -3.24024,-0.32337 -6.11163,0.0497 -13.67422,-2.93988 -17.65363,-6.97874 -2.50934,-2.54682 -3.10637,-3.92722 -3.10637,-7.18228 0,-3.00306 -0.058,-3.1659 -1.12798,-3.1659 -2.058769,0 -4.878572,2.56494 -6.51687,5.92785 l -1.523884,3.12806 -2.387784,-1.28796 c -1.313285,-0.70837 -3.300317,-1.77658 -4.415636,-2.3738 -2.778796,-1.48795 -6.590179,-4.73509 -8.288673,-7.0616 C 75.175637,128.28737 72.48,123.89443 72.48,123.4153 c 0,-0.20714 -0.727666,-1.87182 -1.617038,-3.69927 C 68.789515,115.45555 64.469779,98.24508 64.067026,92.64 63.905784,90.396 63.452712,85.734077 63.060202,82.280174 62.667691,78.826272 62.39747,75.802272 62.459712,75.560174 62.521949,75.318077 62.407421,71.772 62.205211,67.68 61.779638,59.06808 62.064278,57.311626 64.47371,53.681659 c 1.015517,-1.529937 1.845284,-3.473241 2.02297,-4.737768 0.926674,-6.594866 3.127387,-5.902282 5.047426,1.588474 0.323169,1.260801 0.773952,2.40755 1.001736,2.548329 0.78886,0.487541 0.409766,2.056008 -0.572266,2.367692 -1.419725,0.450604 -0.925291,1.254787 1.230312,2.001076 1.028419,0.356045 1.988261,0.817839 2.132981,1.026202 0.396187,0.570408 2.713147,1.369478 6.983131,2.408328 7.123022,1.732973 9.061714,2.13289 13.418064,2.767882 L 100.08,64.284768 95.874974,64.059197 c -2.312764,-0.124066 -5.120764,-0.443347 -6.24,-0.709517 -1.119235,-0.26617 -4.684934,-1.016002 -7.923772,-1.666301 -3.539434,-0.710649 -6.754277,-1.665547 -8.058173,-2.393505 -2.199615,-1.228028 -3.349138,-1.45561 -6.55453,-1.297661 -1.661285,0.08186 -1.817918,0.223051 -2.32127,2.092358 -0.541791,2.01205 -0.269213,8.74716 1.026173,25.355429 0.457401,5.864429 2.214796,16.73578 3.297739,20.4 0.234072,0.792 1.001261,3.384 1.704869,5.76 3.12372,10.54846 5.879088,15.95724 10.461926,20.53673 2.22565,2.22403 7.11743,5.14327 8.618582,5.14327 0.400268,0 1.17722,-0.95618 1.726556,-2.12484 1.579929,-3.36117 5.221065,-5.55516 9.219296,-5.55516 3.24822,0 3.32763,0.11546 3.32763,4.83872 v 4.25602 l 2.08033,2.08033 c 2.89915,2.89915 5.63618,4.38116 10.90323,5.90375 4.39031,1.26914 4.92299,1.31205 16.53644,1.33218 12.47966,0.0216 18.46583,-0.48397 24.72,-2.0879 1.98,-0.50779 4.87538,-1.17046 6.43417,-1.47261 10.30577,-1.99758 22.71239,-10.22939 27.23728,-18.07195 1.59645,-2.76697 3.26803,-7.29986 3.28148,-8.89854 0.004,-0.462 0.17523,-0.84 0.38075,-0.84 0.65879,0 4.7586,-17.988744 6.18092,-27.12 0.12337,-0.792 0.77062,-4.896 1.43834,-9.12 0.8686,-5.494762 1.20493,-9.455506 1.18202,-13.92 l -0.032,-6.24 -1.77145,-1.56 c -0.9743,-0.858 -2.27318,-1.56 -2.88642,-1.56 -1.17913,0 -10.85822,2.608973 -11.77025,3.172637 -0.29469,0.182131 -5.31008,1.04591 -11.14531,1.91951 -5.83524,0.873605 -11.96077,1.901189 -13.6123,2.283523 -1.65153,0.382335 -5.10753,0.809765 -7.68,0.949844 l -4.67722,0.254688 5.62733,-0.756447 c 3.09502,-0.41604 5.52189,-0.927033 5.39303,-1.135541 -0.26358,-0.42648 0.49002,-0.685276 3.61964,-1.243041 1.69163,-0.301483 0.44265,-0.457123 -5.76,-0.717759 -10.13906,-0.426043 -12.71673,-1.067476 -6.24,-1.552771 2.508,-0.187925 6.35032,-0.554208 8.53849,-0.81396 3.43522,-0.407789 4.08405,-0.366715 4.75155,0.300792 0.48784,0.487839 1.14514,0.657639 1.78152,0.460219 2.28593,-0.709161 5.67148,-0.85163 6.04071,-0.254198 0.28474,0.460714 1.68912,0.226066 6.0691,-1.014038 4.65253,-1.317274 5.39258,-1.642536 4.03143,-1.771863 -0.99222,-0.09428 -1.74449,0.07346 -1.8581,0.414312 -0.14645,0.439344 -0.27495,0.436747 -0.55176,-0.01114 -0.27017,-0.437141 -0.60952,-0.450787 -1.35034,-0.05432 -1.2062,0.645543 -2.0126,0.680314 -2.0126,0.08678 0,-0.506006 2.22854,-1.256587 5.04,-1.697481 4.86428,-0.762816 13.81966,-4.48692 14.68703,-6.107611 0.28091,-0.524895 0.43925,-1.025285 0.35186,-1.111983 -0.0874,-0.0867 -1.34689,0.355128 -2.79889,0.981831 -1.452,0.626707 -3.072,1.151284 -3.6,1.165728 -0.528,0.01445 -1.824,0.323054 -2.88,0.6858 -2.6249,0.901675 -6,1.41995 -6,0.92135 0,-0.22524 1.04586,-0.780984 2.32414,-1.234987 1.27827,-0.454003 3.16827,-1.190722 4.2,-1.637151 1.03172,-0.446428 2.30324,-0.887851 2.82559,-0.980937 0.52236,-0.09309 1.15956,-0.379071 1.416,-0.635518 0.25645,-0.25646 0.96307,-0.466279 1.57027,-0.466279 0.6072,0 1.104,-0.09033 1.104,-0.200742 0,-0.110408 0.13706,-0.596408 0.30457,-1.08 0.28333,-0.817908 0.25505,-0.815709 -0.40531,0.03152 -0.50937,0.65352 -1.04986,0.825453 -1.91349,0.608696 -0.66199,-0.166147 -2.36959,0.02819 -3.79469,0.431862 -1.42509,0.403671 -4.53508,1.23962 -6.91108,1.857664 -2.376,0.618048 -4.92806,1.363857 -5.67125,1.657358 -0.74318,0.293501 -3.01118,0.518064 -5.04,0.499022 l -3.68876,-0.0346 2.64,-0.633153 c 1.452,-0.348235 4.152,-0.894351 6,-1.213589 4.7825,-0.826171 9.79118,-2.526093 16.12784,-5.473718 1.47832,-0.687668 2.88232,-1.255107 3.12,-1.260978 0.23769,-0.0059 0.97216,-0.433075 1.63216,-0.949335 1.63219,-1.276716 0.39713,-1.276716 -3.23535,0 -1.50226,0.528 -3.17086,0.961331 -3.70801,0.962957 -0.53715,0.0016 -1.51664,0.278627 -2.17664,0.615557 -0.66,0.336929 -2.172,0.901484 -3.36,1.254566 -1.188,0.353082 -3.024,0.960405 -4.08,1.349606 -2.7824,1.025488 -8.575,2.059608 -11.44223,2.042718 -3.29657,-0.01942 -2.08815,-0.674612 2.56223,-1.389221 4.00187,-0.614953 7.42384,-1.366369 8.88,-1.94992 2.53204,-1.01471 5.38235,-1.926263 6.02316,-1.926263 0.39108,0 1.46386,-0.400227 2.38395,-0.889393 0.92009,-0.489167 2.5193,-1.165935 3.5538,-1.50393 2.13487,-0.697506 5.07909,-2.337639 5.07909,-2.829398 0,-0.560883 2.50625,-0.56665 3.1802,-0.0073 0.77493,0.643135 0.0422,2.350038 -1.00876,2.350038 -0.37113,0 -0.80399,0.209063 -0.96191,0.464585 -0.27051,0.437683 7.30784,0.230611 8.75047,-0.2391 0.65033,-0.211743 0.77674,-2.101777 0.3,-4.485485 -0.2113,-1.05653 -0.57314,-1.500017 -1.22384,-1.500017 -0.50811,0 -1.56745,-0.332827 -2.35409,-0.739616 -0.78665,-0.406789 -1.67329,-0.589415 -1.97033,-0.405836 -0.32958,0.203691 -0.40658,0.117797 -0.19758,-0.220384 0.18838,-0.304786 0.11375,-0.55416 -0.16583,-0.55416 -0.27958,0 -0.50833,0.501048 -0.50833,1.113439 0,1.015434 -1.58475,2.830071 -2.67359,3.061409 -0.24552,0.05217 -1.52641,0.519151 -2.84641,1.037746 -4.03047,1.583469 -13.32614,4.420166 -20.6104,6.289537 -4.21568,1.081875 -8.72416,1.294196 -9.01405,0.424505 -0.1373,-0.411894 -2.203,-0.353987 -8.08001,0.226506 -18.00734,1.778649 -30.98003,2.41888 -37.36971,1.844279 C 120.08062,45.858398 113.256,45.496087 108.24,45.352285 103.224,45.208484 98.148,44.886857 96.96,44.637558 92.110915,43.619992 87.401808,42.741141 84,42.218862 c -3.951029,-0.6066 -9.6,-2.335346 -9.6,-2.937873 0,-0.209813 -0.918,-0.846884 -2.04,-1.415714 -1.122,-0.56883 -2.148,-1.16722 -2.28,-1.329755 -0.132,-0.162536 -1.606555,-1.458751 -3.276782,-2.880477 -3.006087,-2.558826 -3.055416,-2.579375 -4.879724,-2.0328 l -1.842936,0.552157 -0.341707,3.646508 c -0.267941,2.859321 -0.198921,3.736947 0.319723,4.06545 0.944501,0.598238 4.547122,0.530392 6.741144,-0.126952 1.318608,-0.395064 2.021405,-0.410281 2.380157,-0.05153 0.942653,0.942656 -0.437693,2.508482 -2.758555,3.129217 -1.95599,0.523148 -2.296238,0.834376 -3.352046,3.066177 -1.339047,2.830513 -2.249943,3.389478 -3.833093,2.352159 -2.029023,-1.329465 -2.963347,-6.978635 -2.193831,-13.264439 0.278012,-2.270956 0.871205,-4.895948 1.318205,-5.833316 0.859613,-1.80263 2.583869,-2.917713 3.793757,-2.453435 C 62.672395,26.903044 62.88,26.666567 62.88,25.87762 62.88,24.552464 60.644856,22.08 59.446901,22.08 c -1.390747,0 -4.265736,2.888943 -5.467896,5.494439 -1.793602,3.887339 -2.133946,5.886642 -2.128829,12.505561 0.0059,7.576121 0.712886,10.892285 2.984026,13.995874 3.043075,4.158451 3.103905,4.516627 2.718172,16.004126 -0.20364,6.064565 -0.1609,11.181542 0.103642,12.409354 0.247594,1.149148 0.995112,6.333148 1.66115,11.52 0.666039,5.186856 1.536418,10.834646 1.93418,12.550646 0.397756,1.716 0.994881,4.524 1.326936,6.24 0.332054,1.716 0.777192,3.552 0.989193,4.08 0.211997,0.528 0.890333,2.256 1.507411,3.84 1.390892,3.57031 2.210285,5.15438 5.352524,10.34757 2.952158,4.87904 9.762556,12.16312 11.756692,12.5744 0.314746,0.0649 1.077898,0.60403 1.695898,1.19803 0.618,0.594 1.630709,1.08 2.250466,1.08 0.619752,0 1.246824,0.31271 1.393483,0.6949 0.37332,0.97286 3.064387,2.30647 3.437141,1.70334 0.566937,-0.91732 1.67891,-0.49032 1.67891,0.64471 0,0.73755 0.419602,1.31414 1.222584,1.68 C 95.489309,151.38414 96,151.3452 96,150.48 c 0,-1.2017 1.312234,-0.80763 2.400667,0.72094 0.935189,1.31335 1.093195,1.37377 1.784553,0.68241 0.69136,-0.69136 0.86013,-0.64894 1.90608,0.47907 1.37166,1.47927 1.82758,1.53017 2.86398,0.31973 0.82567,-0.96431 2.08472,-0.8493 2.08472,0.19043 0,0.33543 0.34738,0.89817 0.77194,1.25053 0.65268,0.54167 0.86479,0.51368 1.37292,-0.18123 0.81086,-1.10892 2.04169,-1.03853 2.41514,0.13812 0.16758,0.528 0.69695,0.96 1.17636,0.96 0.47942,0 0.98464,-0.432 1.12272,-0.96 0.31825,-1.217 1.31596,-1.24617 1.62938,-0.0476 0.29401,1.12428 2.34865,1.59047 3.08726,0.70049 0.72176,-0.86966 2.17323,-0.83095 2.51786,0.0671 0.30545,0.79599 2.22642,1.00306 2.22642,0.24 0,-0.74569 1.30469,-0.56495 1.60691,0.22261 0.22021,0.57386 0.55037,0.60474 1.80175,0.1685 1.137,-0.39636 1.75989,-0.39187 2.41523,0.0174 z M 125.8,66.546826 c 0.51767,-0.448244 10.55073,-0.744874 10.27818,-0.303879 -0.16536,0.267557 -2.5308,0.477053 -5.38651,0.477053 -2.80042,0 -5.00167,-0.07793 -4.89167,-0.173174 z m -21.4,-1.366138 c -4.953403,-0.578198 -4.953403,-0.88249 0,-0.552701 2.376,0.158194 4.38332,0.342927 4.4607,0.41052 0.47497,0.414864 -1.56703,0.479952 -4.4607,0.142181 z m 16.8,-1.584682 c -0.264,-0.09252 -5.124,-0.407985 -10.8,-0.701049 -5.676,-0.293064 -11.616,-0.727479 -13.2,-0.965362 -1.584,-0.237888 -4.608,-0.681974 -6.72,-0.986856 -3.504586,-0.50592 -9.244526,-1.975761 -13.011144,-3.331809 -0.820128,-0.295258 -1.684128,-0.483711 -1.92,-0.418781 -0.235872,0.06493 -0.914856,-0.04728 -1.508856,-0.249394 -1.13796,-0.387168 -1.505386,-1.732392 -0.48,-1.757376 0.665338,-0.01622 8.309294,2.330741 9.540907,2.929383 0.429499,0.208761 1.617499,0.530832 2.64,0.715713 1.022501,0.184882 2.291093,0.424344 2.819093,0.532138 7.567949,1.545043 22.39387,2.730926 41.76,3.340262 6.336,0.199359 10.872,0.51121 10.08,0.693005 -1.45768,0.334594 -18.31487,0.510302 -19.2,0.200126 z m 46.32,-4.981564 c 0,-0.335136 1.11876,-0.535997 3,-0.538613 1.65,-0.0024 4.188,-0.138139 5.64,-0.301872 2.20941,-0.249144 2.54013,-0.19165 2.02767,0.352502 -0.79474,0.843888 -10.66767,1.295515 -10.66767,0.487983 z m -15.36,-1.877986 c 1.17868,-0.722635 13.48659,-2.161862 14.01017,-1.638283 0.29465,0.294643 -0.89417,0.651941 -3.29459,0.990192 -5.74279,0.809227 -11.55143,1.160539 -10.71558,0.648091 z M 171.36,54.48 c 0,-0.367171 0.44923,-0.501 1.2,-0.35748 0.66,0.126168 1.2,0.28703 1.2,0.35748 0,0.07045 -0.54,0.231312 -1.2,0.35748 -0.75077,0.14352 -1.2,0.0097 -1.2,-0.35748 z m 4.962,-0.331896 c 0.96653,-0.352056 1.51705,-0.34105 1.896,0.03792 0.392,0.392002 0.0298,0.523925 -1.362,0.496104 -1.87495,-0.03749 -1.88088,-0.04339 -0.534,-0.534 z m 3.918,-0.645437 c 0.792,-0.362654 1.872,-0.652675 2.4,-0.644501 0.62294,0.0096 0.37016,0.242016 -0.72,0.661834 -2.19953,0.847037 -3.53757,0.833232 -1.68,-0.01733 z m -31.92,-1.051358 c 0,-0.258288 2.106,-0.611659 4.68,-0.785275 2.574,-0.173612 6.33912,-0.552164 8.36693,-0.841229 3.08531,-0.439815 3.85216,-0.409839 4.69957,0.18371 l 1.01264,0.709282 -1.09957,0.343805 C 164.15978,52.630598 148.32,52.980144 148.32,52.451309 Z m -86.4,-0.795327 c 0,-0.101208 0.432298,-0.297062 0.960662,-0.435235 0.528365,-0.138168 0.839616,-0.05536 0.691671,0.184018 C 63.313973,51.822802 61.92,52.034736 61.92,51.655982 Z m 82.84228,-3.107572 c -0.13991,-0.226378 2.49334,-0.533823 5.85167,-0.683213 3.35833,-0.149392 7.77769,-0.542536 9.82081,-0.873653 3.57416,-0.579246 4.88077,-0.414993 3.93324,0.494448 -1.14794,1.101792 -18.98404,2.068315 -19.60572,1.062418 z M 226.29466,155.561 c 0.14923,-0.24145 -2e-5,-0.56082 -0.33167,-0.70969 -0.33165,-0.14888 0.26101,-0.24514 1.31701,-0.21391 3.19049,0.0944 3.97764,-0.0436 4.77012,-0.8361 1.12133,-1.12132 0.6189,-1.46806 -2.61735,-1.80632 -1.60436,-0.16769 -3.31598,-0.5184 -3.8036,-0.77937 -0.66151,-0.35403 -1.17419,-0.24824 -2.01957,0.41674 -0.65517,0.51536 -1.94432,0.90241 -3.05676,0.91777 -1.9458,0.0268 -4.55284,0.78156 -4.55284,1.318 0,0.16053 0.26807,0.20252 0.59571,0.0933 0.32765,-0.10921 0.88307,0.0888 1.23429,0.44 0.35122,0.35121 1.1504,0.63857 1.77596,0.63857 0.62556,0 1.27088,0.216 1.43404,0.48 0.37156,0.6012 4.88666,0.63643 5.25466,0.041 z M 224.16,153.6 c -0.58222,-0.37626 -0.51333,-0.4667 0.36,-0.47265 0.594,-0.004 1.08,0.20865 1.08,0.47265 0,0.6014 -0.5094,0.6014 -1.44,0 z M 37.330735,153.49289 c -0.29663,-0.85091 -0.623402,-1.29489 -0.726161,-0.98661 -0.179774,0.53932 0.660379,2.53372 1.067345,2.53372 0.108978,0 -0.04455,-0.6962 -0.341184,-1.54711 z m 196.636975,-3.30514 c -0.23664,-0.38289 -0.15221,-0.4501 0.25179,-0.20042 0.35409,0.21884 0.78274,0.0995 1.02682,-0.28583 0.57639,-0.91002 0.53824,-1.8615 -0.0746,-1.8615 -0.27958,0 -0.40979,0.162 -0.28935,0.36 0.12044,0.198 -0.59334,0.39062 -1.58617,0.42805 -2.10536,0.0794 -4.26436,1.063 -3.44488,1.56947 0.29753,0.18388 1.42555,0.38653 2.50672,0.45032 1.42776,0.0842 1.86832,-0.0417 1.60972,-0.46009 z m -6.97532,-1.45856 c 1.36422,-0.56695 2.40316,-1.26895 2.30875,-1.56 -0.0944,-0.29105 -1.02993,-1.00718 -2.07893,-1.59139 -1.76488,-0.98289 -2.14747,-1.02239 -5.12474,-0.52904 -1.76961,0.29323 -3.21747,0.72997 -3.21747,0.97052 0,0.24056 -0.20108,0.31311 -0.44683,0.16122 -0.70533,-0.43592 -1.04959,0.53513 -0.3852,1.08652 0.32857,0.27269 1.19019,0.64458 1.91471,0.82642 0.72453,0.18185 1.31732,0.50887 1.31732,0.72672 0,0.21784 0.594,0.48606 1.32,0.59604 0.726,0.10998 1.4532,0.23232 1.61599,0.27188 0.16279,0.0395 1.41218,-0.39194 2.7764,-0.95889 z m 6.28761,-3.24425 c 0,-0.23929 -0.46578,-0.31326 -1.03506,-0.16439 -0.70917,0.18545 -0.92694,0.0957 -0.69167,-0.28494 0.18886,-0.30558 0.12738,-0.55561 -0.13662,-0.55561 -0.62827,0 -1.07545,0.74119 -0.6836,1.13305 0.4695,0.4695 2.54695,0.365 2.54695,-0.12811 z m 5.02354,-2.16713 c 1.54178,-0.6442 3.54939,-3.38488 2.93186,-4.00242 -0.15147,-0.15146 -0.2754,-0.0106 -0.2754,0.31294 0,0.32358 -0.16541,0.4861 -0.36758,0.36115 -0.91484,-0.5654 -8.75893,2.24401 -8.10139,2.90156 0.22539,0.22539 2.70355,0.91575 3.80439,1.05983 0.20647,0.027 1.11013,-0.25785 2.00812,-0.63306 z m -6.34351,-2.87662 c 1.60426,-0.68991 1.73713,-0.87484 1.22162,-1.70031 -0.80105,-1.28268 -2.45707,-1.59345 -5.35489,-1.00488 -1.35672,0.27556 -3.43876,0.67669 -4.62676,0.8914 l -2.16,0.39039 1.5741,0.83072 c 0.86575,0.4569 1.83775,0.67927 2.16,0.49415 0.32794,-0.18839 0.41502,-0.14942 0.19779,0.0885 -0.58473,0.64041 2.61077,1.55705 3.98811,1.144 0.66,-0.19792 2.01001,-0.70821 3.00003,-1.13397 z m 10.17739,-5.15824 c 1.65639,-0.7547 1.5371,-1.27051 -0.33742,-1.45895 -2.18392,-0.21956 -3.82437,0.49235 -3.08279,1.33784 0.70278,0.80125 1.83914,0.84149 3.42021,0.12111 z m -7.11084,-1.65389 c 1.61417,-0.61646 1.98033,-0.97007 1.82729,-1.76472 -0.40788,-2.11799 -3.03974,-2.35889 -6.77429,-0.62007 -1.36423,0.63519 -2.55583,1.11908 -2.648,1.07531 -0.0922,-0.0438 0.008,0.13642 0.22158,0.40042 0.48716,0.60089 3.1549,1.5949 4.41079,1.64348 0.51918,0.0201 1.85236,-0.3104 2.96263,-0.73442 z M 244.8,132.45167 C 244.8,132.20325 244.62,132 244.4,132 c -0.22,0 -0.4,0.3145 -0.4,0.69888 0,0.38439 0.18,0.58764 0.4,0.45168 0.22,-0.13597 0.4,-0.45047 0.4,-0.69889 z m -2.40717,-2.34951 c 1.53852,-1.18211 1.08597,-1.57598 -1.92032,-1.67138 -2.53693,-0.0805 -3.86055,0.64939 -2.75843,1.52108 1.61695,1.27888 3.14596,1.328 4.67875,0.1503 z M 247.2,125.76 c 0,-0.792 -0.0956,-1.44 -0.21256,-1.44 -0.37297,0 -3.62744,2.00586 -3.62744,2.23574 0,0.12151 0.17232,0.11442 0.38292,-0.0157 0.2106,-0.13017 0.6966,-0.0382 1.08,0.20432 1.44314,0.91294 2.37708,0.52621 2.37708,-0.98432 z m -7.8,0.005 c 1.4559,-0.88768 2.02829,-1.54169 1.2,-1.37113 -0.198,0.0408 -1.16306,-0.28322 -2.14458,-0.72 -0.98153,-0.43679 -2.21465,-0.79415 -2.74027,-0.79415 -1.3154,0 -4.36163,1.57165 -4.1866,2.16 0.14789,0.4971 3.66572,1.57489 5.35145,1.63957 0.528,0.0203 1.662,-0.39118 2.52,-0.91431 z m 4.14959,-3.44683 c -0.232,-0.37539 -0.0873,-0.46191 0.4363,-0.26096 0.43085,0.16533 0.91103,0.094 1.06707,-0.15843 0.15603,-0.25249 0.91895,-0.45906 1.69537,-0.45906 1.29931,0 1.41167,-0.13676 1.41167,-1.71814 0,-1.68352 -0.0314,-1.71174 -1.56,-1.40072 -2.09602,0.42647 -7.08,2.70128 -7.08,3.23148 0,0.23322 0.216,0.29054 0.48,0.12738 0.264,-0.16316 0.48,-0.0838 0.48,0.17648 0,0.4853 1.01097,0.86926 2.54833,0.96784 0.54831,0.0352 0.74042,-0.15128 0.52126,-0.50589 z M 237.4824,119.16 c 0.12943,-0.393 -0.31301,-0.6 -1.2824,-0.6 -1.42603,0 -1.85293,0.42708 -1.13975,1.14025 0.51559,0.51558 2.19802,0.14033 2.42215,-0.54025 z m 4.19196,-2.52913 c -0.16626,-0.26902 -1.31301,-0.99546 -2.54833,-1.61431 -1.92191,-0.96281 -2.4681,-1.04808 -3.78487,-0.59087 -1.99746,0.69355 -2.96954,1.61712 -2.02143,1.92055 0.37415,0.11973 1.00427,0.32576 1.40027,0.45783 1.42261,0.47447 7.26472,0.32897 6.95436,-0.1732 z M 247.2,114.26455 c 0.93583,-0.65598 1.23221,-1.33245 1.3463,-3.07285 0.12586,-1.91982 0.0195,-2.2317 -0.76066,-2.2317 -1.37022,0 -7.78632,3.26029 -7.78094,3.95383 0.002,0.33339 0.81259,1.07702 1.8,1.65249 1.96937,1.14778 3.44509,1.06524 5.3953,-0.30177 z M 238.8,110.4 c 0.85711,-0.9471 0.83838,-0.96 -1.39393,-0.96 -1.2445,0 -2.14176,0.19572 -1.99392,0.43494 0.14785,0.23922 0.75459,0.34482 1.34833,0.23467 0.59374,-0.11014 0.80952,-0.0719 0.47952,0.0851 -0.33,0.15693 -0.6,0.48332 -0.6,0.72532 0,0.77516 1.26309,0.47108 2.16,-0.52 z m 2.064,-2.496 c 0.81466,-0.81466 0.71492,-1.50002 -0.16893,-1.16085 -0.42716,0.16391 -0.61983,0.0834 -0.45167,-0.18865 0.16129,-0.26097 0.11851,-0.49913 -0.0951,-0.52923 -2.49421,-0.35153 -3.02178,-0.26809 -3.80964,0.60247 -0.47946,0.52981 -0.66181,0.91301 -0.40522,0.85157 0.25659,-0.0614 0.79053,0.0135 1.18653,0.16645 2.47682,0.95693 3.00863,0.99361 3.744,0.25824 z m 5.256,-1.79691 c 0.7304,-0.60932 1.08,-1.42766 1.08,-2.52803 0,-2.63003 -0.78319,-2.94682 -3.19053,-1.29053 -2.43151,1.67292 -2.67944,2.96075 -0.76947,3.99692 1.6537,0.89715 1.58574,0.90136 2.88,-0.17836 z m -6.09616,-4.11942 c 1.51272,-0.78226 1.78686,-1.41138 0.81616,-1.87299 -0.33,-0.156931 -0.1137,-0.195072 0.48066,-0.0848 0.59437,0.11031 0.95962,0.005 0.81167,-0.234675 -0.47618,-0.770472 -5.48573,-0.510413 -6.32446,0.328325 -0.63247,0.63247 -0.65112,0.83305 -0.10864,1.16833 0.36021,0.22262 0.86062,0.27765 1.11201,0.12227 0.2514,-0.15537 0.31437,-0.0516 0.13993,0.23068 -0.2884,0.46664 0.29305,0.94055 1.27267,1.03726 0.21111,0.0208 1.02111,-0.29165 1.8,-0.69443 z M 245.76,98.128445 c 0,-1.308125 -0.93674,-2.587243 -1.68456,-2.300275 -0.39046,0.149832 -0.59195,0.463315 -0.44775,0.696628 0.14419,0.233314 -0.073,0.29557 -0.48276,0.138351 -0.40971,-0.157224 -0.74493,-0.04675 -0.74493,0.245496 0,0.292248 0.29755,0.531355 0.66123,0.531355 0.36367,0 0.93012,0.324 1.25877,0.72 0.77492,0.933725 1.44,0.919152 1.44,-0.03154 z m -9.87926,-0.4998 c 1.97174,-0.756629 -0.49666,-3.247267 -3.14369,-3.172003 -1.847,0.05251 -4.0707,1.441704 -3.39283,2.119574 0.93348,0.933485 5.09881,1.604131 6.53652,1.052429 z m 6.35597,-3.949435 c 1.31047,-1.045642 1.45992,-1.370218 1.0143,-2.202864 -1.16889,-2.184077 -1.54768,-2.232236 -4.18635,-0.532229 -3.37004,2.171189 -3.33812,2.107296 -1.70466,3.412949 1.63896,1.310044 2.54281,1.184409 4.87671,-0.677856 z M 238.92,87.845261 c 1.73602,-1.058467 1.96469,-1.959442 0.74786,-2.94649 -0.69199,-0.561307 -0.7519,-0.558816 -0.40494,0.01685 0.31448,0.521775 0.17151,0.613978 -0.62786,0.404938 -0.8019,-0.209707 -1.03506,-0.05726 -1.03506,0.676728 0,0.705317 -0.22822,0.874973 -0.8931,0.66395 -0.53728,-0.170525 -1.35004,0.103819 -2.04,0.688594 -0.9135,0.774235 -0.95993,0.906422 -0.22816,0.649545 0.63502,-0.222916 0.81156,-0.149088 0.57167,0.239055 -0.57884,0.93659 2.18439,0.658709 3.90959,-0.393168 z m -2.18994,-5.240223 c 0.68832,-0.803889 0.69967,-1.034524 0.0935,-1.899892 -0.90929,-1.298199 -2.10643,-0.807912 -2.00864,0.822628 0.13554,2.259994 0.65313,2.551143 1.9151,1.077264 z M 54.419246,60.547128 c 0.652824,-0.721358 0.709791,-1.151285 0.296559,-2.238163 -0.619459,-1.629303 -1.237181,-1.143331 -1.691871,1.331035 -0.365486,1.988909 0.126725,2.308906 1.395312,0.907128 z M 204.80961,56.178955 c -0.65765,-0.781574 -1.57965,-2.426328 -2.04889,-3.655003 -0.77601,-2.03196 -0.91047,-2.155589 -1.48694,-1.367218 -0.98659,1.349247 -0.78442,1.963191 1.40622,4.27034 2.29808,2.420304 4.05563,3.040824 2.12961,0.751881 z M 190.52,56.332474 c 0.48167,-0.415383 -1.71182,-0.109172 -2.36,0.329457 -0.52582,0.355829 -0.33164,0.400359 0.72,0.165125 0.792,-0.177158 1.53,-0.39972 1.64,-0.494582 z M 192,55.68 c 0,-0.264 -0.0952,-0.48 -0.21167,-0.48 -0.11642,0 -0.34517,0.216 -0.50833,0.48 -0.16316,0.264 -0.0679,0.48 0.21167,0.48 0.27958,0 0.50833,-0.216 0.50833,-0.48 z m 3.27259,-0.782837 c 1.61585,-0.172277 1.94542,-0.657163 0.44667,-0.657163 -1.56843,0 -2.75926,0.448699 -2.75926,1.039685 0,0.251333 0.26086,0.295747 0.5797,0.0987 0.31883,-0.197049 1.09863,-0.413601 1.73289,-0.481224 z M 69.6,52.444536 c 0,-0.918605 -0.863294,-0.722117 -1.423114,0.323909 -0.723268,1.35144 -0.616488,1.554384 0.463114,0.880161 0.528,-0.32974 0.96,-0.871574 0.96,-1.20407 z m 69.6,-8.768352 c 3.564,-0.274941 10.692,-0.82493 15.84,-1.222198 18.24971,-1.408315 27.17767,-3.201096 41.04863,-8.242772 4.55308,-1.654907 4.75814,-1.76752 7.43258,-4.081629 2.0369,-1.762477 2.06989,-1.839998 2.11399,-4.967861 L 205.68,21.98428 202.93187,19.424021 C 201.42038,18.015879 199.6744,16.579416 199.0519,16.231882 194.62393,13.75982 189.7536,11.52 188.80626,11.52 c -0.61944,0 -1.12626,-0.198262 -1.12626,-0.440581 0,-0.378133 -5.63302,-2.4909748 -8.43557,-3.1640289 C 168.39546,5.3099304 158.27687,4.3061257 143.04,4.3237673 c -16.76281,0.019408 -42.09846,2.2847508 -53.52,4.7853962 -9.460003,2.0711855 -11.32511,2.8049955 -18,7.0819445 -5.490504,3.518052 -6.234614,4.46123 -6.237614,7.906307 -0.0024,2.756918 0.728491,5.182585 1.561593,5.182585 0.24744,0 1.454765,1.066666 2.682955,2.370368 4.250117,4.51144 12.064762,8.01117 20.507924,9.184322 2.092828,0.290793 4.023345,0.709407 4.290038,0.930256 0.76475,0.633292 9.219374,1.361969 19.675104,1.695733 5.28,0.168547 9.69,0.394845 9.8,0.502885 0.37815,0.371409 8.92864,0.211848 15.4,-0.28738 z M 101.04,37.96093 C 95.480866,37.253006 89.653248,35.9977 87.49608,35.043482 86.298115,34.513567 85.019069,34.08 84.65375,34.08 83.7972,34.08 80.041162,32.336249 77.28,30.656714 74.323795,28.858542 73.250261,26.938409 73.66285,24.187065 74.861496,16.1939 90.80015,11.968207 127.68,9.8659128 c 12.34199,-0.7035408 25.20285,-0.3294437 32.64,0.9494322 2.244,0.385874 4.728,0.699509 5.52,0.696969 0.792,-0.0025 2.952,0.31155 4.8,0.697978 1.848,0.386428 5.628,1.167405 8.4,1.735505 2.772,0.568099 6.012,1.420664 7.2,1.894588 1.188,0.473924 3.36263,1.324822 4.83251,1.890884 3.183,1.225802 7.16749,4.683266 7.16749,6.219451 0,1.673511 -6.20462,6.76928 -8.24229,6.76928 -0.48274,0 -0.87771,0.19315 -0.87771,0.429222 0,0.236073 -0.486,0.4244 -1.08,0.418506 -0.594,-0.0059 -3.024,0.577668 -5.4,1.296804 -2.376,0.719136 -5.508,1.498662 -6.96,1.732282 -7.76294,1.249015 -14.00743,2.026151 -21.12,2.628411 -8.92208,0.755483 -49.03467,1.306884 -53.52,0.735705 z M 92.405232,32.587139 C 93.84085,31.912318 94.56,31.271523 94.56,30.667139 94.56,30.165531 94.225464,29.76 93.81167,29.76 c -0.41158,0 -0.615028,0.215676 -0.452116,0.479281 0.170716,0.276219 -0.170362,0.428745 -0.805023,0.36 -0.745008,-0.0807 -1.254225,0.224412 -1.57416,0.943191 -0.354734,0.79695 -0.746251,0.99387 -1.566648,0.787964 -1.03895,-0.26076 -1.46328,0.260007 -0.773721,0.949564 0.541977,0.541979 1.521796,0.361677 3.76523,-0.692861 z M 177.6,32.399148 c 1.452,-0.34099 3.288,-0.848933 4.08,-1.128764 0.792,-0.279831 3.06,-0.961689 5.04,-1.51524 4.33451,-1.211802 8.54962,-3.265562 9.20806,-4.486507 0.38674,-0.717148 0.17284,-1.208982 -1.0944,-2.516446 -0.8663,-0.893795 -2.02027,-1.762859 -2.56438,-1.931254 -0.5441,-0.168394 -1.85328,-0.696234 -2.90928,-1.172977 -5.83435,-2.633984 -8.51832,-3.323555 -18.58068,-4.773768 -3.77263,-0.54372 -7.99381,-1.212259 -9.3804,-1.485643 -8.35357,-1.647004 -29.94943,-2.152565 -39.47892,-0.924207 -1.98,0.255224 -5.03718,0.594119 -6.79373,0.7531 -1.75655,0.158982 -3.55031,0.549794 -3.98612,0.868471 -0.95316,0.69697 -0.52126,2.230696 0.63121,2.241437 0.68352,0.0064 0.69267,0.06802 0.0686,0.462492 -1.41758,0.896114 -0.64898,2.867321 1.13877,2.920583 0.97993,0.02919 0.97606,0.04853 -0.0956,0.47816 -0.93053,0.373044 -1.09513,0.748315 -0.98674,2.249575 0.16195,2.242944 -0.62482,2.631392 -1.15847,0.57197 -0.3868,-1.492716 -0.44797,-1.52258 -2.61781,-1.278007 -2.14214,0.24145 -3.76069,1.425616 -3.19644,2.338592 0.13913,0.225107 1.26621,0.41774 2.50463,0.428073 l 2.25167,0.01879 -1.68,0.711596 c -0.924,0.391377 -2.16492,1.300922 -2.75761,2.021211 -0.84852,1.031199 -1.07813,1.131037 -1.08,0.469617 -0.003,-1.076821 -2.03802,-1.137399 -2.91009,-0.08663 -0.35555,0.428418 -1.03464,0.64631 -1.574401,0.505159 -1.122734,-0.2936 -4.157899,0.872154 -4.157899,1.596978 0,0.641167 0.06025,0.639664 7.73307,-0.192787 3.53481,-0.383503 8.31693,-0.834893 10.62693,-1.003089 l 4.2,-0.305809 -0.006,-1.756911 c -0.005,-1.639764 -1.38371,-7.908267 -2.15431,-9.796911 -0.46727,-1.145209 0.79714,-1.115268 1.51606,0.0359 0.49966,0.800083 1.43365,5.913333 1.72506,9.4441 l 0.11885,1.44 7.44,-0.115436 c 10.75152,-0.166816 24.05922,0.656342 32.81074,2.029532 6.78609,1.064798 7.80027,1.347375 9.36,2.607944 1.91988,1.551639 3.11952,1.589809 8.70926,0.277108 z m -53.94094,-8.949279 c -0.29943,-3.221709 -0.17103,-4.281837 0.4441,-3.666706 0.51717,0.517164 0.84665,7.096837 0.35539,7.096837 -0.26438,0 -0.62415,-1.543559 -0.79949,-3.430131 z M 129.6,24.96 c 0,-0.264 0.216,-0.48 0.48,-0.48 0.264,0 0.48,0.216 0.48,0.48 0,0.264 -0.216,0.48 -0.48,0.48 -0.264,0 -0.48,-0.216 -0.48,-0.48 z M 88.32,28.748645 C 88.32,28.51289 87.996,28.32 87.6,28.32 c -0.396,0 -0.72,0.317221 -0.72,0.704935 0,0.429405 0.281419,0.596945 0.72,0.428645 0.396,-0.151959 0.72,-0.46918 0.72,-0.704935 z M 82.001136,28.175023 C 82.654104,27.388247 82.179782,25.44 81.335266,25.44 80.015755,25.44 78.24,26.405874 78.24,27.123587 c 0,1.303644 2.882957,2.109581 3.761136,1.051436 z m 10.846862,-0.840989 c 0.754023,-0.737246 -0.152923,-1.138853 -1.498142,-0.6634 -1.854686,0.655518 -2.138971,1.889633 -0.332438,1.443143 0.76042,-0.18794 1.584182,-0.538824 1.83058,-0.779743 z M 98.259,26.257341 c 1.8102,-1.00619 0.695429,-1.815993 -1.672493,-1.21495 -2.031187,0.515569 -2.548699,1.066899 -1.426507,1.519714 1.01028,0.407658 1.990786,0.311233 3.099,-0.304764 z M 87.099427,25.382622 c 0.814848,-0.761728 -0.948005,-2.024778 -2.3388,-1.675709 -1.33043,0.333916 -1.59683,1.184886 -0.663201,2.118512 0.582388,0.58239 2.153169,0.350696 3.002001,-0.442803 z M 103.44,24.425015 c 0,-1.00214 -2.57637,-1.149354 -2.95267,-0.168717 -0.17093,0.445431 -0.029,0.972517 0.31986,1.188145 0.83385,0.515349 2.63281,-0.18121 2.63281,-1.019428 z M 91.68,24.039258 C 91.68,22.872037 90.991546,22.08 89.976974,22.08 c -1.307212,0 -1.778659,0.564381 -1.367179,1.636684 C 88.920912,24.527439 91.68,24.817326 91.68,24.039258 Z M 79.266826,23.07566 c 1.072214,-0.874616 1.084252,-0.943364 0.223761,-1.27799 -0.625579,-0.243275 -1.112462,-0.07596 -1.56,0.536082 -1.315181,1.798621 -0.508382,2.246576 1.336239,0.741908 z M 97.406222,22.591034 C 98.504136,21.896233 98.422387,20.663908 97.259006,20.371919 95.662858,19.971311 93.6,20.927588 93.6,22.06812 c 0,0.777988 0.311222,0.970414 1.56,0.96453 0.858,-0.004 1.868798,-0.20277 2.246222,-0.441616 z M 85.378315,20.861685 C 85.96823,20.271768 84.797626,19.2 83.563392,19.2 c -1.688165,0 -2.283538,0.715886 -1.440331,1.731884 0.533246,0.642525 2.586816,0.598241 3.255254,-0.0702 z M 102.48,20.406574 c 0,-1.109581 -1.41714,-1.542274 -2.39453,-0.731116 -1.028489,0.853574 -0.3177,1.999072 1.13585,1.830508 0.8868,-0.10284 1.25868,-0.42766 1.25868,-1.099392 z m 7.14373,-0.7504 C 110.55638,18.79416 109.46727,17.76 107.6268,17.76 c -2.23813,0 -3.75018,0.969167 -3.30836,2.120535 0.26162,0.681789 0.69782,0.764617 2.59799,0.493322 1.25596,-0.179321 2.47425,-0.502278 2.7073,-0.717683 z M 89.673667,18.832951 c 0.09414,-0.65998 -0.150758,-1.194062 -0.632265,-1.378832 -1.08794,-0.417481 -1.842692,0.481536 -1.448074,1.72486 0.423461,1.3342 1.875101,1.092743 2.080339,-0.346028 z m 6.895123,-0.720179 c 0.918029,-1.445333 -0.07373,-2.409146 -2.089819,-2.030926 -2.72424,0.51107 -3.158405,0.965393 -2.070917,2.167056 0.707362,0.781623 1.271415,0.959205 2.357055,0.742076 0.784944,-0.156989 1.5966,-0.552181 1.803681,-0.878206 z M 101.67029,16.44 c -0.18041,-0.946593 -2.167941,-1.414349 -2.899826,-0.682463 -0.763286,0.763285 0.04107,1.522463 1.613056,1.522463 1.11896,0 1.41059,-0.190372 1.28677,-0.84 z m 6.88393,-0.405868 c 0.22318,-0.137934 0.40578,-0.698481 0.40578,-1.245661 0,-0.892061 -0.20908,-0.96683 -2.02316,-0.723511 -1.99627,0.267757 -3.49588,1.47994 -2.94118,2.377463 0.27043,0.437572 3.68472,0.131769 4.55856,-0.408291 z"
       id="path3189" />
  </g>
</svg>
